<svg width="84" height="50" viewBox="0 0 84 50" fill="none" xmlns="http://www.w3.org/2000/svg">
<path d="M83.3511 8.35821C80.1193 8.88452 77.5831 11.3824 77.0487 14.5653C76.9045 15.4174 75.6576 15.4174 75.5134 14.5653C74.979 11.3824 72.4428 8.88452 69.2111 8.35821C68.3459 8.21619 68.3459 6.98815 69.2111 6.84613C72.4428 6.31983 74.979 3.82197 75.5134 0.639084C75.6576 -0.213028 76.9045 -0.213028 77.0487 0.639084C77.5831 3.82197 80.1193 6.31983 83.3511 6.84613C84.2163 6.98815 84.2163 8.21619 83.3511 8.35821ZM62.0265 4.29815C63.4346 4.52371 64.5373 5.61809 64.7748 7.00486C64.8342 7.38079 65.377 7.38079 65.4449 7.00486C65.6739 5.61809 66.7851 4.53206 68.1932 4.29815C68.5749 4.23967 68.5749 3.70501 68.1932 3.63818C66.7851 3.41262 65.6824 2.31824 65.4449 0.931475C65.3855 0.555543 64.8427 0.555543 64.7748 0.931475C64.5458 2.31824 63.4346 3.40427 62.0265 3.63818C61.6448 3.69666 61.6448 4.23132 62.0265 4.29815ZM76.2853 22.3846C75.5898 22.3846 75.0299 22.936 75.0299 23.621V32.209C75.0299 36.8121 71.2299 40.5547 66.5561 40.5547H34.2554C33.5598 40.5547 33 41.106 33 41.7911C33 42.4761 33.5598 43.0275 34.2554 43.0275H61.0426C61.7296 43.0275 62.281 43.5705 62.2895 44.2471V48.8084C62.2895 49.8694 63.5873 50.3957 64.3507 49.6522L73.9781 40.1704C74.2071 39.9699 74.4192 39.7527 74.6313 39.5271L74.7246 39.4352H74.7161C76.4719 37.5221 77.5407 34.9909 77.5407 32.2173V23.6294C77.5407 22.9444 76.9809 22.393 76.2853 22.393V22.3846Z" fill="white"/>
<path d="M2.556 29C2.184 29 1.896 28.898 1.692 28.694C1.488 28.478 1.386 28.184 1.386 27.812V17.426C1.386 17.042 1.482 16.754 1.674 16.562C1.878 16.358 2.166 16.256 2.538 16.256C2.91 16.256 3.192 16.358 3.384 16.562C3.588 16.754 3.69 17.042 3.69 17.426V27.038H8.91C9.234 27.038 9.48 27.122 9.648 27.29C9.828 27.458 9.918 27.698 9.918 28.01C9.918 28.322 9.828 28.568 9.648 28.748C9.48 28.916 9.234 29 8.91 29H2.556ZM15.2035 29.18C14.2915 29.18 13.4995 28.994 12.8275 28.622C12.1555 28.25 11.6335 27.722 11.2615 27.038C10.8895 26.342 10.7035 25.526 10.7035 24.59C10.7035 23.882 10.8055 23.252 11.0095 22.7C11.2255 22.136 11.5315 21.656 11.9275 21.26C12.3235 20.852 12.7975 20.546 13.3495 20.342C13.9015 20.126 14.5195 20.018 15.2035 20.018C16.1155 20.018 16.9075 20.204 17.5795 20.576C18.2515 20.948 18.7735 21.476 19.1455 22.16C19.5175 22.844 19.7035 23.654 19.7035 24.59C19.7035 25.298 19.5955 25.934 19.3795 26.498C19.1755 27.062 18.8755 27.548 18.4795 27.956C18.0835 28.352 17.6095 28.658 17.0575 28.874C16.5055 29.078 15.8875 29.18 15.2035 29.18ZM15.2035 27.47C15.6475 27.47 16.0375 27.362 16.3735 27.146C16.7095 26.93 16.9675 26.612 17.1475 26.192C17.3395 25.76 17.4355 25.226 17.4355 24.59C17.4355 23.63 17.2315 22.916 16.8235 22.448C16.4155 21.968 15.8755 21.728 15.2035 21.728C14.7595 21.728 14.3695 21.836 14.0335 22.052C13.6975 22.256 13.4335 22.574 13.2415 23.006C13.0615 23.426 12.9715 23.954 12.9715 24.59C12.9715 25.538 13.1755 26.258 13.5835 26.75C13.9915 27.23 14.5315 27.47 15.2035 27.47ZM25.6646 32.42C25.0166 32.42 24.3866 32.36 23.7746 32.24C23.1746 32.12 22.6286 31.934 22.1366 31.682C21.9086 31.562 21.7526 31.418 21.6686 31.25C21.5966 31.082 21.5726 30.908 21.5966 30.728C21.6326 30.56 21.7046 30.41 21.8126 30.278C21.9326 30.146 22.0766 30.056 22.2446 30.008C22.4126 29.96 22.5866 29.984 22.7666 30.08C23.2946 30.344 23.7926 30.512 24.2606 30.584C24.7406 30.668 25.1486 30.71 25.4846 30.71C26.2886 30.71 26.8886 30.512 27.2846 30.116C27.6926 29.732 27.8966 29.156 27.8966 28.388V26.768H28.0586C27.8786 27.38 27.5006 27.872 26.9246 28.244C26.3606 28.604 25.7186 28.784 24.9986 28.784C24.2066 28.784 23.5166 28.604 22.9286 28.244C22.3406 27.872 21.8846 27.356 21.5606 26.696C21.2366 26.036 21.0746 25.268 21.0746 24.392C21.0746 23.732 21.1646 23.138 21.3446 22.61C21.5366 22.07 21.8006 21.608 22.1366 21.224C22.4846 20.84 22.8986 20.546 23.3786 20.342C23.8706 20.126 24.4106 20.018 24.9986 20.018C25.7426 20.018 26.3906 20.204 26.9426 20.576C27.5066 20.936 27.8726 21.416 28.0406 22.016L27.8606 22.466V21.188C27.8606 20.816 27.9566 20.534 28.1486 20.342C28.3526 20.15 28.6286 20.054 28.9766 20.054C29.3366 20.054 29.6126 20.15 29.8046 20.342C29.9966 20.534 30.0926 20.816 30.0926 21.188V28.118C30.0926 29.546 29.7146 30.62 28.9586 31.34C28.2026 32.06 27.1046 32.42 25.6646 32.42ZM25.6106 27.074C26.0786 27.074 26.4806 26.966 26.8166 26.75C27.1526 26.534 27.4106 26.228 27.5906 25.832C27.7826 25.424 27.8786 24.944 27.8786 24.392C27.8786 23.564 27.6746 22.916 27.2666 22.448C26.8586 21.968 26.3066 21.728 25.6106 21.728C25.1426 21.728 24.7406 21.836 24.4046 22.052C24.0686 22.268 23.8046 22.574 23.6126 22.97C23.4326 23.366 23.3426 23.84 23.3426 24.392C23.3426 25.22 23.5466 25.874 23.9546 26.354C24.3626 26.834 24.9146 27.074 25.6106 27.074ZM33.5399 29.126C33.1799 29.126 32.9039 29.018 32.7119 28.802C32.5199 28.586 32.4239 28.286 32.4239 27.902V21.296C32.4239 20.9 32.5199 20.6 32.7119 20.396C32.9039 20.18 33.1799 20.072 33.5399 20.072C33.8999 20.072 34.1759 20.18 34.3679 20.396C34.5719 20.6 34.6739 20.9 34.6739 21.296V27.902C34.6739 28.286 34.5779 28.586 34.3859 28.802C34.1939 29.018 33.9119 29.126 33.5399 29.126ZM33.5399 18.398C33.1199 18.398 32.7899 18.296 32.5499 18.092C32.3219 17.876 32.2079 17.582 32.2079 17.21C32.2079 16.826 32.3219 16.532 32.5499 16.328C32.7899 16.124 33.1199 16.022 33.5399 16.022C33.9719 16.022 34.3019 16.124 34.5299 16.328C34.7579 16.532 34.8719 16.826 34.8719 17.21C34.8719 17.582 34.7579 17.876 34.5299 18.092C34.3019 18.296 33.9719 18.398 33.5399 18.398ZM41.0798 29.18C40.1558 29.18 39.3518 28.994 38.6678 28.622C37.9838 28.238 37.4558 27.698 37.0838 27.002C36.7118 26.306 36.5258 25.49 36.5258 24.554C36.5258 23.846 36.6278 23.216 36.8318 22.664C37.0478 22.1 37.3538 21.626 37.7498 21.242C38.1458 20.846 38.6258 20.546 39.1898 20.342C39.7538 20.126 40.3838 20.018 41.0798 20.018C41.4758 20.018 41.9018 20.072 42.3578 20.18C42.8258 20.288 43.2638 20.468 43.6718 20.72C43.8638 20.84 43.9898 20.984 44.0498 21.152C44.1098 21.32 44.1218 21.494 44.0858 21.674C44.0498 21.842 43.9718 21.992 43.8518 22.124C43.7438 22.244 43.6058 22.322 43.4378 22.358C43.2698 22.382 43.0838 22.34 42.8798 22.232C42.6158 22.076 42.3458 21.962 42.0698 21.89C41.7938 21.806 41.5298 21.764 41.2778 21.764C40.8818 21.764 40.5338 21.83 40.2338 21.962C39.9338 22.082 39.6758 22.262 39.4598 22.502C39.2558 22.73 39.0998 23.018 38.9918 23.366C38.8838 23.714 38.8298 24.116 38.8298 24.572C38.8298 25.46 39.0398 26.162 39.4598 26.678C39.8918 27.182 40.4978 27.434 41.2778 27.434C41.5298 27.434 41.7878 27.398 42.0518 27.326C42.3278 27.254 42.6038 27.14 42.8798 26.984C43.0838 26.876 43.2638 26.84 43.4198 26.876C43.5878 26.912 43.7258 26.996 43.8338 27.128C43.9418 27.248 44.0078 27.398 44.0318 27.578C44.0558 27.746 44.0318 27.914 43.9598 28.082C43.8998 28.25 43.7798 28.388 43.5998 28.496C43.2038 28.736 42.7838 28.91 42.3398 29.018C41.8958 29.126 41.4758 29.18 41.0798 29.18ZM46.618 29.126C46.258 29.126 45.982 29.018 45.79 28.802C45.598 28.586 45.502 28.286 45.502 27.902V21.296C45.502 20.9 45.598 20.6 45.79 20.396C45.982 20.18 46.258 20.072 46.618 20.072C46.978 20.072 47.254 20.18 47.446 20.396C47.65 20.6 47.752 20.9 47.752 21.296V27.902C47.752 28.286 47.656 28.586 47.464 28.802C47.272 29.018 46.99 29.126 46.618 29.126ZM46.618 18.398C46.198 18.398 45.868 18.296 45.628 18.092C45.4 17.876 45.286 17.582 45.286 17.21C45.286 16.826 45.4 16.532 45.628 16.328C45.868 16.124 46.198 16.022 46.618 16.022C47.05 16.022 47.38 16.124 47.608 16.328C47.836 16.532 47.95 16.826 47.95 17.21C47.95 17.582 47.836 17.876 47.608 18.092C47.38 18.296 47.05 18.398 46.618 18.398ZM52.9879 29.18C52.3519 29.18 51.7819 29.06 51.2779 28.82C50.7859 28.568 50.3959 28.232 50.1079 27.812C49.8319 27.392 49.6939 26.918 49.6939 26.39C49.6939 25.742 49.8619 25.232 50.1979 24.86C50.5339 24.476 51.0799 24.2 51.8359 24.032C52.5919 23.864 53.6059 23.78 54.8779 23.78H55.7779V25.076H54.8959C54.1519 25.076 53.5579 25.112 53.1139 25.184C52.6699 25.256 52.3519 25.382 52.1599 25.562C51.9799 25.73 51.8899 25.97 51.8899 26.282C51.8899 26.678 52.0279 27.002 52.3039 27.254C52.5799 27.506 52.9639 27.632 53.4559 27.632C53.8519 27.632 54.1999 27.542 54.4999 27.362C54.8119 27.17 55.0579 26.912 55.2379 26.588C55.4179 26.264 55.5079 25.892 55.5079 25.472V23.402C55.5079 22.802 55.3759 22.37 55.1119 22.106C54.8479 21.842 54.4039 21.71 53.7799 21.71C53.4319 21.71 53.0539 21.752 52.6459 21.836C52.2499 21.92 51.8299 22.064 51.3859 22.268C51.1579 22.376 50.9539 22.406 50.7739 22.358C50.6059 22.31 50.4739 22.214 50.3779 22.07C50.2819 21.914 50.2339 21.746 50.2339 21.566C50.2339 21.386 50.2819 21.212 50.3779 21.044C50.4739 20.864 50.6359 20.732 50.8639 20.648C51.4159 20.42 51.9439 20.258 52.4479 20.162C52.9639 20.066 53.4319 20.018 53.8519 20.018C54.7159 20.018 55.4239 20.15 55.9759 20.414C56.5399 20.678 56.9599 21.08 57.2359 21.62C57.5119 22.148 57.6499 22.832 57.6499 23.672V27.992C57.6499 28.364 57.5599 28.652 57.3799 28.856C57.1999 29.048 56.9419 29.144 56.6059 29.144C56.2699 29.144 56.0059 29.048 55.8139 28.856C55.6339 28.652 55.5439 28.364 55.5439 27.992V27.128H55.6879C55.6039 27.548 55.4359 27.914 55.1839 28.226C54.9439 28.526 54.6379 28.76 54.2659 28.928C53.8939 29.096 53.4679 29.18 52.9879 29.18ZM61.0497 29.144C60.6897 29.144 60.4137 29.048 60.2217 28.856C60.0297 28.652 59.9337 28.364 59.9337 27.992V21.188C59.9337 20.816 60.0297 20.534 60.2217 20.342C60.4137 20.15 60.6837 20.054 61.0317 20.054C61.3797 20.054 61.6497 20.15 61.8417 20.342C62.0337 20.534 62.1297 20.816 62.1297 21.188V22.412L61.9317 21.962C62.1957 21.326 62.6037 20.846 63.1557 20.522C63.7197 20.186 64.3557 20.018 65.0637 20.018C65.7717 20.018 66.3537 20.15 66.8097 20.414C67.2657 20.678 67.6077 21.08 67.8357 21.62C68.0637 22.148 68.1777 22.82 68.1777 23.636V27.992C68.1777 28.364 68.0817 28.652 67.8897 28.856C67.6977 29.048 67.4217 29.144 67.0617 29.144C66.7017 29.144 66.4197 29.048 66.2157 28.856C66.0237 28.652 65.9277 28.364 65.9277 27.992V23.744C65.9277 23.06 65.7957 22.562 65.5317 22.25C65.2797 21.938 64.8837 21.782 64.3437 21.782C63.6837 21.782 63.1557 21.992 62.7597 22.412C62.3757 22.82 62.1837 23.366 62.1837 24.05V27.992C62.1837 28.76 61.8057 29.144 61.0497 29.144Z" fill="white"/>
</svg>
