<svg width="100%" height="100%" viewBox="0 0 20 20" fill="none" xmlns="http://www.w3.org/2000/svg">
<path d="M5.90846 8.8483C7.14051 8.8483 8.13821 7.73617 8.13821 6.45686C8.13821 5.17755 7.1606 4 5.90846 4C4.65632 4 3.67871 5.20662 3.67871 6.45686C3.67871 7.7071 4.67641 8.8483 5.90846 8.8483Z" stroke="currentColor" stroke-width="1.5"/>
<path d="M6.26074 9.45166V8.70166L6.26003 8.70166L6.26074 9.45166ZM9.34082 10.1333L9.66179 9.45545L9.66174 9.45543L9.34082 10.1333ZM10.4639 10.897L9.92426 11.4179L9.92947 11.4233L9.9348 11.4286L10.4639 10.897ZM11.0439 12.187L11.7939 12.1871V12.187H11.0439ZM9.57715 14.5024L9.19955 13.8544L9.19867 13.8549L9.57715 14.5024ZM6.48828 15.2603L6.47042 14.5104L6.46102 14.5107L6.48828 15.2603ZM6.45508 15.2612L6.47028 16.0111L6.47937 16.0108L6.45508 15.2612ZM6.26074 15.2671L6.26074 16.0171H6.26074V15.2671ZM6.23535 15.2651L6.23672 14.5151L6.2304 14.5152L6.23535 15.2651ZM6.17773 15.2671L6.17727 16.0171H6.17773V15.2671ZM6.02148 15.2593L6.05029 14.5098L6.02122 14.5087L5.99215 14.5099L6.02148 15.2593ZM5.86523 15.2671L5.86519 16.0171H5.86523V15.2671ZM5.80762 15.2651L5.81265 14.5151L5.80634 14.5151L5.80762 15.2651ZM5.7832 15.2671V16.0171H5.7832L5.7832 15.2671ZM5.58789 15.2612L5.56351 16.0109L5.57261 16.0111L5.58789 15.2612ZM5.55469 15.2603L5.58204 14.5107L5.57262 14.5105L5.55469 15.2603ZM2.4668 14.5024L2.84528 13.8549L2.84439 13.8544L2.4668 14.5024ZM1 12.187H0.25V12.1871L1 12.187ZM1.58008 10.897L2.10914 11.4286L2.11447 11.4233L2.11969 11.4179L1.58008 10.897ZM2.70312 10.1333L2.38221 9.45543L2.38216 9.45545L2.70312 10.1333ZM5.7832 9.45166L5.82481 8.70281L5.80402 8.70166H5.7832V9.45166ZM5.80078 9.45264L5.75918 10.2015L5.78399 10.2029L5.80885 10.2026L5.80078 9.45264ZM5.86523 9.45166V8.70166H5.86517L5.86523 9.45166ZM6.02148 9.46436L5.93295 10.2091L6.0216 10.2197L6.11025 10.2091L6.02148 9.46436ZM6.17773 9.45166V8.70166L6.17727 8.70166L6.17773 9.45166ZM6.24219 9.45264L6.23424 10.2026L6.255 10.2028L6.27574 10.2019L6.24219 9.45264ZM6.26074 9.45166V10.2017C7.23819 10.2017 8.25127 10.4473 9.0199 10.8112L9.34082 10.1333L9.66174 9.45543C8.69591 8.99818 7.46395 8.70166 6.26074 8.70166V9.45166ZM9.34082 10.1333L9.01985 10.8111C9.40393 10.993 9.71445 11.2005 9.92426 11.4179L10.4639 10.897L11.0035 10.3761C10.6266 9.98565 10.145 9.68426 9.66179 9.45545L9.34082 10.1333ZM10.4639 10.897L9.9348 11.4286C10.1389 11.6317 10.2939 11.8876 10.2939 12.187H11.0439H11.7939C11.7939 11.3366 11.35 10.7208 10.9929 10.3654L10.4639 10.897ZM11.0439 12.187L10.2939 12.1869C10.2939 12.9077 9.86019 13.4695 9.19955 13.8544L9.57715 14.5024L9.95475 15.1505C10.9008 14.5992 11.7938 13.6177 11.7939 12.1871L11.0439 12.187ZM9.57715 14.5024L9.19867 13.8549C8.55412 14.2317 7.62704 14.4829 6.47043 14.5105L6.48828 15.2603L6.50614 16.01C7.84342 15.9782 9.03631 15.6873 9.95563 15.1499L9.57715 14.5024ZM6.48828 15.2603L6.46102 14.5107C6.44435 14.5114 6.4624 14.5106 6.43078 14.5116L6.45508 15.2612L6.47937 16.0108C6.48232 16.0107 6.48522 16.0107 6.49188 16.0105C6.49753 16.0103 6.50616 16.0101 6.51554 16.0098L6.48828 15.2603ZM6.45508 15.2612L6.43987 14.5114C6.30631 14.5141 6.33527 14.5171 6.26074 14.5171V15.2671V16.0171C6.30943 16.0171 6.35476 16.0154 6.38838 16.014C6.42631 16.0125 6.44784 16.0115 6.47028 16.0111L6.45508 15.2612ZM6.26074 15.2671L6.26074 14.5171C6.28638 14.5171 6.3067 14.5185 6.31826 14.5195C6.32417 14.52 6.32876 14.5205 6.33118 14.5208C6.33334 14.521 6.33496 14.5212 6.33363 14.521C6.33318 14.521 6.32955 14.5206 6.32559 14.5201C6.3213 14.5197 6.31477 14.519 6.30691 14.5183C6.29152 14.5169 6.26687 14.5152 6.23672 14.5151L6.23535 15.2651L6.23398 16.0151C6.20802 16.0151 6.18757 16.0136 6.17639 16.0126C6.17063 16.0121 6.16621 16.0116 6.16404 16.0114C6.16218 16.0112 6.16067 16.011 6.16233 16.0112C6.16311 16.0113 6.16686 16.0117 6.17113 16.0122C6.17567 16.0127 6.18239 16.0134 6.19043 16.0141C6.20624 16.0154 6.23083 16.0171 6.26074 16.0171L6.26074 15.2671ZM6.23535 15.2651L6.2304 14.5152C6.21477 14.5153 6.20127 14.5157 6.19151 14.5161C6.1823 14.5164 6.17341 14.5169 6.16986 14.5171C6.16483 14.5173 6.16449 14.5173 6.16513 14.5173C6.16614 14.5173 6.17082 14.5171 6.17773 14.5171V15.2671V16.0171C6.1942 16.0171 6.20848 16.0167 6.21912 16.0163C6.22939 16.0159 6.23868 16.0155 6.2433 16.0153C6.24617 16.0151 6.24759 16.015 6.24905 16.015C6.25032 16.0149 6.25068 16.0149 6.25052 16.0149C6.25036 16.0149 6.24643 16.0151 6.2403 16.0151L6.23535 15.2651ZM6.17773 15.2671L6.1782 14.5171C6.17842 14.5171 6.17328 14.5171 6.14962 14.5155C6.13226 14.5144 6.09052 14.5114 6.05029 14.5098L6.02148 15.2593L5.99268 16.0087C6.00672 16.0093 6.01761 16.0101 6.05206 16.0124C6.08021 16.0142 6.12606 16.0171 6.17727 16.0171L6.17773 15.2671ZM6.02148 15.2593L5.99215 14.5099C5.95236 14.5114 5.91054 14.5144 5.89344 14.5156C5.86985 14.5171 5.86477 14.5171 5.86523 14.5171V15.2671V16.0171C5.91654 16.0171 5.96255 16.0142 5.99085 16.0124C6.02565 16.0101 6.03653 16.0093 6.05082 16.0087L6.02148 15.2593ZM5.86523 15.2671L5.86528 14.5171C5.87207 14.5171 5.87669 14.5172 5.87779 14.5173C5.87849 14.5173 5.87821 14.5173 5.87322 14.5171C5.86969 14.5169 5.86078 14.5164 5.85154 14.5161C5.84171 14.5157 5.82824 14.5153 5.81265 14.5152L5.80762 15.2651L5.80259 16.0151C5.79657 16.0151 5.79269 16.0149 5.79245 16.0149C5.79227 16.0149 5.7926 16.0149 5.79386 16.015C5.7953 16.015 5.79669 16.0151 5.79956 16.0153C5.80417 16.0155 5.81349 16.0159 5.82381 16.0163C5.83453 16.0167 5.84877 16.0171 5.86519 16.0171L5.86523 15.2671ZM5.80762 15.2651L5.80634 14.5151C5.77512 14.5152 5.74961 14.5171 5.73375 14.5185C5.72565 14.5193 5.71893 14.52 5.71455 14.5205C5.7105 14.5209 5.7068 14.5214 5.70641 14.5214C5.70509 14.5216 5.70686 14.5214 5.70917 14.5211C5.71176 14.5208 5.71661 14.5203 5.72285 14.5197C5.73502 14.5187 5.75634 14.5171 5.7832 14.5171L5.7832 15.2671L5.7832 16.0171C5.81418 16.0171 5.8396 16.0153 5.85586 16.0138C5.86414 16.0131 5.87103 16.0124 5.87566 16.0118C5.88001 16.0114 5.88382 16.0109 5.88454 16.0108C5.88617 16.0106 5.88451 16.0108 5.88249 16.011C5.88014 16.0113 5.87545 16.0118 5.86936 16.0124C5.85756 16.0134 5.83609 16.0151 5.80889 16.0151L5.80762 15.2651ZM5.7832 15.2671V14.5171C5.70919 14.5171 5.73561 14.5141 5.60317 14.5114L5.58789 15.2612L5.57261 16.0111C5.59536 16.0115 5.61716 16.0125 5.65526 16.0141C5.68907 16.0154 5.73447 16.0171 5.7832 16.0171V15.2671ZM5.58789 15.2612L5.61227 14.5116C5.57984 14.5106 5.59917 14.5114 5.58203 14.5108L5.55469 15.2603L5.52734 16.0098C5.5368 16.0101 5.54549 16.0103 5.55113 16.0105C5.5578 16.0107 5.56064 16.0107 5.56351 16.0108L5.58789 15.2612ZM5.55469 15.2603L5.57262 14.5105C4.41641 14.4828 3.48967 14.2316 2.84528 13.8549L2.4668 14.5024L2.08832 15.1499C3.0074 15.6872 4.19988 15.9781 5.53676 16.01L5.55469 15.2603ZM2.4668 14.5024L2.84439 13.8544C2.18374 13.4695 1.75008 12.9077 1.75 12.1869L1 12.187L0.25 12.1871C0.250167 13.6177 1.1431 14.5992 2.0892 15.1505L2.4668 14.5024ZM1 12.187H1.75C1.75 11.8876 1.90507 11.6317 2.10914 11.4286L1.58008 10.897L1.05102 10.3654C0.693902 10.7208 0.25 11.3366 0.25 12.187H1ZM1.58008 10.897L2.11969 11.4179C2.3295 11.2005 2.64002 10.993 3.02409 10.8111L2.70312 10.1333L2.38216 9.45545C1.89895 9.68426 1.41735 9.98566 1.04047 10.3761L1.58008 10.897ZM2.70312 10.1333L3.02404 10.8112C3.79268 10.4473 4.80576 10.2017 5.7832 10.2017V9.45166V8.70166C4.58 8.70166 3.34803 8.99819 2.38221 9.45543L2.70312 10.1333ZM5.7832 9.45166L5.7416 10.2005L5.75918 10.2015L5.80078 9.45264L5.84238 8.70379L5.82481 8.70281L5.7832 9.45166ZM5.80078 9.45264L5.80885 10.2026C5.86224 10.202 5.84111 10.2017 5.86529 10.2017L5.86523 9.45166L5.86517 8.70166C5.84647 8.70166 5.82941 8.70198 5.818 8.70221C5.80449 8.70248 5.79894 8.70261 5.79272 8.70268L5.80078 9.45264ZM5.86523 9.45166V10.2017C5.85926 10.2017 5.86081 10.2013 5.87452 10.2026C5.88879 10.2039 5.9048 10.2058 5.93295 10.2091L6.02148 9.46436L6.11002 8.7196C6.06914 8.71474 5.96828 8.70166 5.86523 8.70166V9.45166ZM6.02148 9.46436L6.11025 10.2091C6.13819 10.2058 6.15419 10.2039 6.16831 10.2026C6.18183 10.2014 6.18365 10.2017 6.1782 10.2017L6.17773 9.45166L6.17727 8.70166C6.07445 8.70172 5.97459 8.71464 5.93272 8.71963L6.02148 9.46436ZM6.17773 9.45166V10.2017C6.20214 10.2017 6.18038 10.202 6.23424 10.2026L6.24219 9.45264L6.25014 8.70268C6.24407 8.70261 6.23853 8.70249 6.22497 8.70221C6.21362 8.70199 6.19644 8.70166 6.17773 8.70166V9.45166ZM6.24219 9.45264L6.27574 10.2019C6.28525 10.2015 6.29302 10.201 6.29708 10.2007C6.29911 10.2005 6.30093 10.2004 6.30159 10.2004C6.30259 10.2003 6.30235 10.2003 6.30197 10.2003C6.30121 10.2004 6.29657 10.2007 6.29019 10.201C6.28364 10.2013 6.2737 10.2016 6.26146 10.2017L6.26074 9.45166L6.26003 8.70166C6.23099 8.70169 6.20751 8.70331 6.20104 8.70375C6.19911 8.70388 6.19732 8.704 6.19678 8.70404C6.19588 8.7041 6.19616 8.70408 6.19664 8.70405C6.19759 8.70399 6.20225 8.70367 6.20864 8.70339L6.24219 9.45264Z" fill="currentColor"/>
<path d="M13.634 8.8483C14.8661 8.8483 15.8638 7.73617 15.8638 6.45686C15.8638 5.17755 14.8862 4 13.634 4C12.3819 4 11.4043 5.20662 11.4043 6.45686C11.4043 7.7071 12.402 8.8483 13.634 8.8483Z" stroke="currentColor" stroke-width="1.5"/>
<path d="M13.9863 9.45166V8.70166L13.9856 8.70166L13.9863 9.45166ZM17.0664 10.1333L17.3874 9.45545L17.3873 9.45543L17.0664 10.1333ZM18.1895 10.897L17.6498 11.4179L17.6551 11.4233L17.6604 11.4286L18.1895 10.897ZM18.7695 12.187L19.5195 12.1871V12.187H18.7695ZM17.3027 14.5024L16.9251 13.8544L16.9243 13.8549L17.3027 14.5024ZM14.2139 15.2603L14.196 14.5104L14.1866 14.5107L14.2139 15.2603ZM14.1807 15.2612L14.1959 16.0111L14.205 16.0108L14.1807 15.2612ZM13.9863 15.2671L13.9863 16.0171H13.9863V15.2671ZM13.9609 15.2651L13.9623 14.5151L13.956 14.5152L13.9609 15.2651ZM13.9033 15.2671L13.9029 16.0171H13.9033V15.2671ZM13.7471 15.2593L13.7759 14.5098L13.7468 14.5087L13.7177 14.5099L13.7471 15.2593ZM13.5908 15.2671L13.5908 16.0171H13.5908V15.2671ZM13.5332 15.2651L13.5382 14.5151L13.5319 14.5151L13.5332 15.2651ZM13.5088 15.2671V16.0171H13.5088L13.5088 15.2671ZM13.3135 15.2612L13.2891 16.0109L13.2982 16.0111L13.3135 15.2612ZM13.2803 15.2603L13.3076 14.5107L13.2982 14.5105L13.2803 15.2603ZM10.1924 14.5024L10.5709 13.8549L10.57 13.8544L10.1924 14.5024ZM8.72559 12.187H7.97559V12.1871L8.72559 12.187ZM9.30566 10.897L9.83473 11.4286L9.84005 11.4233L9.84527 11.4179L9.30566 10.897ZM10.4287 10.1333L10.1078 9.45543L10.1077 9.45545L10.4287 10.1333ZM13.5088 9.45166L13.5504 8.70281L13.5296 8.70166H13.5088V9.45166ZM13.5264 9.45264L13.4848 10.2015L13.5096 10.2029L13.5344 10.2026L13.5264 9.45264ZM13.5908 9.45166V8.70166H13.5908L13.5908 9.45166ZM13.7471 9.46436L13.6585 10.2091L13.7472 10.2197L13.8358 10.2091L13.7471 9.46436ZM13.9033 9.45166V8.70166L13.9029 8.70166L13.9033 9.45166ZM13.9678 9.45264L13.9598 10.2026L13.9806 10.2028L14.0013 10.2019L13.9678 9.45264ZM13.9863 9.45166V10.2017C14.9638 10.2017 15.9769 10.4473 16.7455 10.8112L17.0664 10.1333L17.3873 9.45543C16.4215 8.99818 15.1895 8.70166 13.9863 8.70166V9.45166ZM17.0664 10.1333L16.7454 10.8111C17.1295 10.993 17.44 11.2005 17.6498 11.4179L18.1895 10.897L18.7291 10.3761C18.3522 9.98565 17.8706 9.68426 17.3874 9.45545L17.0664 10.1333ZM18.1895 10.897L17.6604 11.4286C17.8645 11.6317 18.0195 11.8876 18.0195 12.187H18.7695H19.5195C19.5195 11.3366 19.0756 10.7208 18.7185 10.3654L18.1895 10.897ZM18.7695 12.187L18.0195 12.1869C18.0194 12.9077 17.5858 13.4695 16.9251 13.8544L17.3027 14.5024L17.6803 15.1505C18.6264 14.5992 19.5194 13.6177 19.5195 12.1871L18.7695 12.187ZM17.3027 14.5024L16.9243 13.8549C16.2797 14.2317 15.3526 14.4829 14.196 14.5105L14.2139 15.2603L14.2317 16.01C15.569 15.9782 16.7619 15.6873 17.6812 15.1499L17.3027 14.5024ZM14.2139 15.2603L14.1866 14.5107C14.1699 14.5114 14.188 14.5106 14.1564 14.5116L14.1807 15.2612L14.205 16.0108C14.2079 16.0107 14.2108 16.0107 14.2175 16.0105C14.2231 16.0103 14.2317 16.0101 14.2411 16.0098L14.2139 15.2603ZM14.1807 15.2612L14.1655 14.5114C14.0319 14.5141 14.0609 14.5171 13.9863 14.5171V15.2671V16.0171C14.035 16.0171 14.0803 16.0154 14.114 16.014C14.1519 16.0125 14.1734 16.0115 14.1959 16.0111L14.1807 15.2612ZM13.9863 15.2671L13.9863 14.5171C14.012 14.5171 14.0323 14.5185 14.0438 14.5195C14.0498 14.52 14.0544 14.5205 14.0568 14.5208C14.0589 14.521 14.0605 14.5212 14.0592 14.521C14.0588 14.521 14.0551 14.5206 14.0512 14.5201C14.0469 14.5197 14.0404 14.519 14.0325 14.5183C14.0171 14.5169 13.9925 14.5152 13.9623 14.5151L13.9609 15.2651L13.9596 16.0151C13.9336 16.0151 13.9132 16.0136 13.902 16.0126C13.8962 16.0121 13.8918 16.0116 13.8896 16.0114C13.8878 16.0112 13.8863 16.011 13.8879 16.0112C13.8887 16.0113 13.8924 16.0117 13.8967 16.0122C13.9013 16.0127 13.908 16.0134 13.916 16.0141C13.9318 16.0154 13.9564 16.0171 13.9863 16.0171L13.9863 15.2671ZM13.9609 15.2651L13.956 14.5152C13.9404 14.5153 13.9269 14.5157 13.9171 14.5161C13.9079 14.5164 13.899 14.5169 13.8954 14.5171C13.8904 14.5173 13.8901 14.5173 13.8907 14.5173C13.8917 14.5173 13.8964 14.5171 13.9033 14.5171V15.2671V16.0171C13.9198 16.0171 13.9341 16.0167 13.9447 16.0163C13.955 16.0159 13.9643 16.0155 13.9689 16.0153C13.9718 16.0151 13.9732 16.015 13.9746 16.015C13.9759 16.0149 13.9763 16.0149 13.9761 16.0149C13.9759 16.0149 13.972 16.0151 13.9659 16.0151L13.9609 15.2651ZM13.9033 15.2671L13.9038 14.5171C13.904 14.5171 13.8989 14.5171 13.8752 14.5155C13.8578 14.5144 13.8161 14.5114 13.7759 14.5098L13.7471 15.2593L13.7183 16.0087C13.7323 16.0093 13.7432 16.0101 13.7776 16.0124C13.8058 16.0142 13.8516 16.0171 13.9029 16.0171L13.9033 15.2671ZM13.7471 15.2593L13.7177 14.5099C13.6779 14.5114 13.6361 14.5144 13.619 14.5156C13.5954 14.5171 13.5904 14.5171 13.5908 14.5171V15.2671V16.0171C13.6421 16.0171 13.6881 16.0142 13.7164 16.0124C13.7512 16.0101 13.7621 16.0093 13.7764 16.0087L13.7471 15.2593ZM13.5908 15.2671L13.5909 14.5171C13.5977 14.5171 13.6023 14.5172 13.6034 14.5173C13.6041 14.5173 13.6038 14.5173 13.5988 14.5171C13.5953 14.5169 13.5864 14.5164 13.5771 14.5161C13.5673 14.5157 13.5538 14.5153 13.5382 14.5152L13.5332 15.2651L13.5282 16.0151C13.5222 16.0151 13.5183 16.0149 13.518 16.0149C13.5179 16.0149 13.5182 16.0149 13.5194 16.015C13.5209 16.015 13.5223 16.0151 13.5251 16.0153C13.5298 16.0155 13.5391 16.0159 13.5494 16.0163C13.5601 16.0167 13.5744 16.0171 13.5908 16.0171L13.5908 15.2671ZM13.5332 15.2651L13.5319 14.5151C13.5007 14.5152 13.4752 14.5171 13.4593 14.5185C13.4512 14.5193 13.4445 14.52 13.4401 14.5205C13.4361 14.5209 13.4324 14.5214 13.432 14.5214C13.4307 14.5216 13.4324 14.5214 13.4348 14.5211C13.4373 14.5208 13.4422 14.5203 13.4484 14.5197C13.4606 14.5187 13.4819 14.5171 13.5088 14.5171L13.5088 15.2671L13.5088 16.0171C13.5398 16.0171 13.5652 16.0153 13.5814 16.0138C13.5897 16.0131 13.5966 16.0124 13.6012 16.0118C13.6056 16.0114 13.6094 16.0109 13.6101 16.0108C13.6118 16.0106 13.6101 16.0108 13.6081 16.011C13.6057 16.0113 13.601 16.0118 13.5949 16.0124C13.5831 16.0134 13.5617 16.0151 13.5345 16.0151L13.5332 15.2651ZM13.5088 15.2671V14.5171C13.4348 14.5171 13.4612 14.5141 13.3288 14.5114L13.3135 15.2612L13.2982 16.0111C13.3209 16.0115 13.3427 16.0125 13.3808 16.0141C13.4147 16.0154 13.4601 16.0171 13.5088 16.0171V15.2671ZM13.3135 15.2612L13.3379 14.5116C13.3054 14.5106 13.3248 14.5114 13.3076 14.5108L13.2803 15.2603L13.2529 16.0098C13.2624 16.0101 13.2711 16.0103 13.2767 16.0105C13.2834 16.0107 13.2862 16.0107 13.2891 16.0108L13.3135 15.2612ZM13.2803 15.2603L13.2982 14.5105C12.142 14.4828 11.2153 14.2316 10.5709 13.8549L10.1924 14.5024L9.8139 15.1499C10.733 15.6872 11.9255 15.9781 13.2623 16.01L13.2803 15.2603ZM10.1924 14.5024L10.57 13.8544C9.90933 13.4695 9.47567 12.9077 9.47559 12.1869L8.72559 12.187L7.97559 12.1871C7.97575 13.6177 8.86869 14.5992 9.81479 15.1505L10.1924 14.5024ZM8.72559 12.187H9.47559C9.47559 11.8876 9.63066 11.6317 9.83473 11.4286L9.30566 10.897L8.7766 10.3654C8.41949 10.7208 7.97559 11.3366 7.97559 12.187H8.72559ZM9.30566 10.897L9.84527 11.4179C10.0551 11.2005 10.3656 10.993 10.7497 10.8111L10.4287 10.1333L10.1077 9.45545C9.62453 9.68426 9.14294 9.98566 8.76605 10.3761L9.30566 10.897ZM10.4287 10.1333L10.7496 10.8112C11.5183 10.4473 12.5313 10.2017 13.5088 10.2017V9.45166V8.70166C12.3056 8.70166 11.0736 8.99819 10.1078 9.45543L10.4287 10.1333ZM13.5088 9.45166L13.4672 10.2005L13.4848 10.2015L13.5264 9.45264L13.568 8.70379L13.5504 8.70281L13.5088 9.45166ZM13.5264 9.45264L13.5344 10.2026C13.5878 10.202 13.5667 10.2017 13.5909 10.2017L13.5908 9.45166L13.5908 8.70166C13.5721 8.70166 13.555 8.70198 13.5436 8.70221C13.5301 8.70248 13.5245 8.70261 13.5183 8.70268L13.5264 9.45264ZM13.5908 9.45166V10.2017C13.5848 10.2017 13.5864 10.2013 13.6001 10.2026C13.6144 10.2039 13.6304 10.2058 13.6585 10.2091L13.7471 9.46436L13.8356 8.7196C13.7947 8.71474 13.6939 8.70166 13.5908 8.70166V9.45166ZM13.7471 9.46436L13.8358 10.2091C13.8638 10.2058 13.8798 10.2039 13.8939 10.2026C13.9074 10.2014 13.9092 10.2017 13.9038 10.2017L13.9033 9.45166L13.9029 8.70166C13.8 8.70172 13.7002 8.71464 13.6583 8.71963L13.7471 9.46436ZM13.9033 9.45166V10.2017C13.9277 10.2017 13.906 10.202 13.9598 10.2026L13.9678 9.45264L13.9757 8.70268C13.9697 8.70261 13.9641 8.70249 13.9506 8.70221C13.9392 8.70199 13.922 8.70166 13.9033 8.70166V9.45166ZM13.9678 9.45264L14.0013 10.2019C14.0108 10.2015 14.0186 10.201 14.0227 10.2007C14.0247 10.2005 14.0265 10.2004 14.0272 10.2004C14.0282 10.2003 14.0279 10.2003 14.0276 10.2003C14.0268 10.2004 14.0222 10.2007 14.0158 10.201C14.0092 10.2013 13.9993 10.2016 13.987 10.2017L13.9863 9.45166L13.9856 8.70166C13.9566 8.70169 13.9331 8.70331 13.9266 8.70375C13.9247 8.70388 13.9229 8.704 13.9224 8.70404C13.9215 8.7041 13.9217 8.70408 13.9222 8.70405C13.9232 8.70399 13.9278 8.70367 13.9342 8.70339L13.9678 9.45264Z" fill="currentColor"/>
<path fill-rule="evenodd" clip-rule="evenodd" d="M12.3259 6.83484C12.3259 8.31097 11.1747 9.59419 9.75307 9.59419C8.33147 9.59419 7.18028 8.27742 7.18028 6.83484C7.18028 5.39226 8.30829 4 9.75307 4C11.1978 4 12.3259 5.35871 12.3259 6.83484ZM9.95609 16.9954C9.93262 16.994 9.9088 16.9925 9.88441 16.9915C9.86002 16.9925 9.8362 16.994 9.81273 16.9954L9.79898 16.9963C9.76698 16.9983 9.73556 17 9.70413 17L9.66015 16.9999L9.60848 17C8.0559 17 6.73879 16.6778 5.78222 16.1186C4.85509 15.5785 4.08984 14.6876 4.08984 13.4461C4.08984 12.7828 4.43568 12.2805 4.75944 11.9583C5.09791 11.6076 5.55412 11.3138 6.05448 11.0769C7.05519 10.6031 8.35023 10.2903 9.60848 10.2903C9.61496 10.2903 9.62151 10.2905 9.6281 10.2907C9.65345 10.2905 9.67879 10.2903 9.70413 10.2903C9.76206 10.2903 9.82454 10.2962 9.88441 10.3033C9.94427 10.2962 10.0068 10.2903 10.0647 10.2903C10.09 10.2903 10.1154 10.2905 10.1407 10.2907C10.1473 10.2905 10.1539 10.2903 10.1603 10.2903C11.4186 10.2903 12.7136 10.6031 13.7143 11.0769C14.2147 11.3138 14.6709 11.6076 15.0094 11.9583C15.3331 12.2805 15.679 12.7828 15.679 13.4461C15.679 14.6876 14.9137 15.5785 13.9866 16.1186C13.03 16.6778 11.7129 17 10.1603 17L10.1087 16.9999L10.0647 17C10.0333 17 10.0018 16.9983 9.96984 16.9963L9.95609 16.9954Z" fill="#FDFDFF" stroke="currentColor" stroke-width="1.5"/>
</svg>