<svg xmlns="http://www.w3.org/2000/svg" fill="none" viewBox="0 0 20 20"><g stroke="currentColor" stroke-linecap="round" stroke-linejoin="round" stroke-width="1.5" clip-path="url(#a)"><path d="M12.733 11.247a5.8 5.8 0 0 1-1.78 1.364v1.929a.643.643 0 0 1-.643.643H6.453a.643.643 0 0 1-.643-.643V12.61a5.786 5.786 0 0 1 4.955-10.454m-4.955 16.2h5.143"/><path d="M11.433 6.058c-.451-.078-.451-.726 0-.805a4.09 4.09 0 0 0 3.289-3.15l.027-.126c.098-.446.733-.449.835-.004l.033.146a4.1 4.1 0 0 0 3.298 3.13c.454.08.454.73 0 .81a4.1 4.1 0 0 0-3.297 3.131l-.033.145c-.102.445-.737.443-.835-.004l-.025-.124a4.09 4.09 0 0 0-3.292-3.149"/></g><defs><clipPath id="a"><path fill="#fff" d="M0 0h20v20H0z"/></clipPath></defs></svg>