<svg xmlns="http://www.w3.org/2000/svg" fill="none" viewBox="0 0 20 20"><g fill="currentColor" clip-path="url(#a)"><path d="M6.25 19.08c-.84 0-1.67-.2-2.42-.58l-1.8.33a.74.74 0 0 1-.67-.21.78.78 0 0 1-.21-.67l.34-1.8a5.4 5.4 0 0 1-.53-3.11 5.344 5.344 0 0 1 4.59-4.6c1.16-.15 2.35.08 3.36.67 1.01.58 1.81 1.5 2.26 2.58s.53 2.29.22 3.42c-.3 1.13-.98 2.14-1.9 2.85-.93.71-2.08 1.1-3.25 1.1zm-2.29-2.11c.13 0 .26.03.38.1 1.31.75 3.05.64 4.25-.28.67-.51 1.15-1.24 1.37-2.05s.16-1.68-.16-2.46-.9-1.43-1.62-1.85a3.85 3.85 0 0 0-2.42-.48c-.83.11-1.62.5-2.21 1.09s-.98 1.38-1.09 2.21.06 1.69.48 2.42c.09.16.12.34.09.51l-.18.99.99-.18s.09-.01.14-.01z"/><path d="M18.62 5.75a7.3 7.3 0 0 0-1.77-2.71 7.425 7.425 0 0 0-9.04-1.03c-.93.56-1.73 1.34-2.33 2.24-.59.88-.98 1.9-1.14 2.95.33-.1.67-.18 1.02-.22.19-.02.38-.03.57-.04.16-.66.44-1.3.81-1.87.48-.72 1.12-1.34 1.86-1.79a5.95 5.95 0 0 1 5.02-.54c.82.28 1.58.75 2.2 1.36.62.6 1.11 1.35 1.41 2.16s.42 1.7.35 2.56-.34 1.72-.77 2.46c-.09.16-.12.34-.09.51l.36 1.92-1.93-.36c-.18-.03-.36 0-.51.09-.49.28-1.02.47-1.57.6-.02.49-.08.98-.2 1.46-.01.05-.04.09-.05.14h.06c.8-.13 1.56-.39 2.27-.76l2.74.51c.24.04.49-.03.67-.21.17-.17.25-.42.21-.67l-.51-2.74c.46-.88.75-1.85.83-2.84.09-1.08-.06-2.19-.44-3.21z"/></g><defs><clipPath id="a"><path fill="#fff" d="M0 0h20v20H0z"/></clipPath></defs></svg>