<svg width="100%" height="100%" viewBox="0 0 20 20" fill="none" xmlns="http://www.w3.org/2000/svg">
<g clip-path="url(#clip0_376_23495)">
<g clip-path="url(#clip1_376_23495)">
<path d="M6.24997 19.0799C5.40997 19.0799 4.57997 18.8799 3.82997 18.4999L2.02997 18.8299C1.78997 18.8799 1.53997 18.8 1.35997 18.62C1.18997 18.45 1.10997 18.2 1.14997 17.95L1.48997 16.1499C1.00997 15.1899 0.819974 14.0999 0.959974 13.0399C1.10997 11.8799 1.64997 10.7899 2.47997 9.95995C3.29997 9.12995 4.39997 8.59995 5.54997 8.43995C6.70997 8.28995 7.89997 8.51995 8.90997 9.10995C9.91997 9.68995 10.72 10.6099 11.17 11.6899C11.62 12.7699 11.7 13.9799 11.39 15.1099C11.09 16.2399 10.41 17.2499 9.48997 17.9599C8.55997 18.6699 7.40997 19.0599 6.23997 19.0599L6.24997 19.0799ZM3.95997 16.9699C4.08997 16.9699 4.21997 16.9999 4.33997 17.0699C5.64997 17.8199 7.38997 17.71 8.58997 16.79C9.25997 16.28 9.73997 15.5499 9.95997 14.7399C10.18 13.9299 10.12 13.0599 9.79997 12.2799C9.47997 11.4999 8.89997 10.8499 8.17997 10.4299C7.44997 10.0099 6.59997 9.83995 5.75997 9.94995C4.92997 10.0599 4.13997 10.4499 3.54997 11.0399C2.95997 11.6299 2.56997 12.4199 2.45997 13.2499C2.34997 14.0799 2.51997 14.9399 2.93997 15.6699C3.02997 15.8299 3.05997 16.0099 3.02997 16.1799L2.84997 17.1699L3.83997 16.9899C3.83997 16.9899 3.92997 16.9799 3.97997 16.9799L3.95997 16.9699Z" fill="currentColor"/>
<path d="M18.6198 5.74998C18.2398 4.72998 17.6298 3.78998 16.8498 3.03998C16.0698 2.27998 15.1198 1.68998 14.0998 1.33998C13.0798 0.979985 11.9598 0.859985 10.8798 0.969985C9.79984 1.07998 8.73984 1.43998 7.80984 2.00998C6.87984 2.56998 6.07984 3.34999 5.47984 4.24998C4.88984 5.12998 4.49984 6.14998 4.33984 7.19998C4.66984 7.09998 5.00984 7.01998 5.35984 6.97998C5.54984 6.95998 5.73984 6.94999 5.92984 6.93998C6.08984 6.27998 6.36984 5.63999 6.73984 5.06998C7.21984 4.34998 7.85984 3.72998 8.59984 3.27998C9.33984 2.82998 10.1898 2.53998 11.0498 2.44998C11.9098 2.35998 12.7998 2.44998 13.6198 2.73998C14.4398 3.01998 15.1998 3.48998 15.8198 4.09998C16.4398 4.69999 16.9298 5.44999 17.2298 6.25998C17.5298 7.06998 17.6498 7.95998 17.5798 8.81998C17.5098 9.67998 17.2398 10.54 16.8098 11.28C16.7198 11.44 16.6898 11.62 16.7198 11.79L17.0798 13.71L15.1498 13.35C14.9698 13.32 14.7898 13.35 14.6398 13.44C14.1498 13.72 13.6198 13.91 13.0698 14.04C13.0498 14.53 12.9898 15.02 12.8698 15.5C12.8598 15.55 12.8298 15.59 12.8198 15.64C12.8398 15.64 12.8598 15.64 12.8798 15.64C13.6798 15.51 14.4398 15.25 15.1498 14.88L17.8898 15.39C18.1298 15.43 18.3798 15.36 18.5598 15.18C18.7298 15.01 18.8098 14.76 18.7698 14.51L18.2598 11.77C18.7198 10.89 19.0098 9.91998 19.0898 8.92999C19.1798 7.84999 19.0298 6.73998 18.6498 5.71998L18.6198 5.74998Z" fill="currentColor"/>
</g>
</g>
<defs>
<clipPath id="clip0_376_23495">
<rect width="20" height="20" fill="white"/>
</clipPath>
<clipPath id="clip1_376_23495">
<rect width="20" height="20" fill="white"/>
</clipPath>
</defs>
</svg>
