<svg width="100%" height="100%" viewBox="0 0 20 20" fill="none" xmlns="http://www.w3.org/2000/svg">
<path d="M8.20312 8C8.20312 7.61167 7.88833 7.29688 7.5 7.29688C7.11167 7.29688 6.79688 7.61167 6.79688 8H7.5H8.20312ZM6.79688 18C6.79688 18.3883 7.11167 18.7031 7.5 18.7031C7.88833 18.7031 8.20312 18.3883 8.20312 18H7.5H6.79688ZM5 2V2.70313H15V2V1.29687H5V2ZM18 5H17.2969V15H18H18.7031V5H18ZM15 18V17.2969H5V18V18.7031H15V18ZM2 15H2.70313V5H2H1.29687V15H2ZM5 18V17.2969C3.73147 17.2969 2.70313 16.2685 2.70313 15H2H1.29687C1.29687 17.0452 2.95482 18.7031 5 18.7031V18ZM18 15H17.2969C17.2969 16.2685 16.2685 17.2969 15 17.2969V18V18.7031C17.0452 18.7031 18.7031 17.0452 18.7031 15H18ZM15 2V2.70313C16.2685 2.70313 17.2969 3.73147 17.2969 5H18H18.7031C18.7031 2.95482 17.0452 1.29687 15 1.29687V2ZM5 2V1.29687C2.95482 1.29687 1.29687 2.95482 1.29687 5H2H2.70313C2.70313 3.73147 3.73147 2.70313 5 2.70313V2ZM7.5 8H6.79688V18H7.5H8.20312V8H7.5ZM2.5 7.5V8.20312H17.5V7.5V6.79688H2.5V7.5Z" fill="currentColor"/>
</svg>
