<svg width="100%" height="100%" viewBox="0 0 20 20" fill="none" xmlns="http://www.w3.org/2000/svg">
<path d="M2.79381 13.4736C2.91143 13.7703 2.93762 14.0954 2.869 14.4071L2.01704 17.039C1.98959 17.1725 1.99669 17.3108 2.03766 17.4407C2.07863 17.5707 2.15212 17.688 2.25116 17.7816C2.3502 17.8752 2.47151 17.9419 2.60357 17.9755C2.73564 18.0091 2.87409 18.0083 3.0058 17.9734L5.73608 17.175C6.03024 17.1167 6.33487 17.1422 6.61524 17.2486C8.32347 18.0464 10.2586 18.2151 12.0791 17.7252C13.8997 17.2352 15.4887 16.118 16.5658 14.5706C17.6429 13.0233 18.1388 11.1452 17.9662 9.2678C17.7935 7.3904 16.9633 5.6343 15.6221 4.30934C14.2808 2.98438 12.5147 2.17571 10.6354 2.026C8.75599 1.8763 6.88413 2.39518 5.35005 3.49109C3.81596 4.58701 2.71823 6.18954 2.25054 8.01593C1.78286 9.84233 1.97526 11.7752 2.79381 13.4736Z" stroke="currentColor" stroke-width="1.5" stroke-linecap="round" stroke-linejoin="round"/>
<path d="M7.67188 7.60021C7.85995 7.06557 8.23117 6.61474 8.71979 6.32758C9.20841 6.04041 9.7829 5.93544 10.3415 6.03125C10.9001 6.12707 11.4068 6.41749 11.7718 6.85107C12.1367 7.28465 12.3365 7.83342 12.3357 8.40018C12.3357 10.0001 9.93577 10.8001 9.93577 10.8001M9.99977 13.9999H10.0078" stroke="currentColor" stroke-width="1.5" stroke-linecap="round" stroke-linejoin="round"/>
</svg>
