<svg width="100%" height="100%" viewBox="0 0 20 20" fill="none" xmlns="http://www.w3.org/2000/svg">
<path d="M10.542 10.2998C10.5586 10.3006 10.5752 10.3018 10.5918 10.3027C10.639 10.3053 10.6862 10.3101 10.7334 10.3135C10.8331 10.3207 10.9328 10.3291 11.0322 10.3398C11.085 10.3456 11.1378 10.3517 11.1904 10.3584C11.2832 10.3702 11.3757 10.3837 11.4678 10.3984C11.5193 10.4067 11.5709 10.4138 11.6221 10.4229C11.6406 10.4261 11.6592 10.4292 11.6777 10.4326C11.7905 10.4534 11.9027 10.4761 12.0137 10.501C12.0319 10.5051 12.0501 10.5095 12.0684 10.5137C12.503 10.614 12.9204 10.7453 13.3057 10.8994C13.3217 10.9058 13.3376 10.9125 13.3535 10.9189C13.4775 10.9695 13.5983 11.022 13.7148 11.0771L14.0811 11.2656C14.4361 11.4645 14.756 11.6952 15.0098 11.958C15.3335 12.2802 15.6797 12.7829 15.6797 13.4463C15.6797 13.5272 15.6753 13.6066 15.6689 13.6846C15.6662 13.7181 15.6611 13.7512 15.6572 13.7842C15.6517 13.8313 15.6464 13.8779 15.6387 13.9238C15.6335 13.9545 15.6262 13.9845 15.6201 14.0146C15.6116 14.0564 15.604 14.0979 15.5938 14.1387C15.5851 14.1729 15.5753 14.2066 15.5654 14.2402C15.553 14.2825 15.5397 14.3241 15.5254 14.3652C15.5149 14.3955 15.5037 14.4254 15.4922 14.4551C15.4768 14.4947 15.4604 14.5336 15.4434 14.5723C15.4321 14.5978 15.4212 14.6234 15.4092 14.6484C15.3896 14.6894 15.3691 14.7297 15.3477 14.7695C15.3335 14.7958 15.3196 14.822 15.3047 14.8477C15.2864 14.8792 15.2665 14.9096 15.2471 14.9404C15.2252 14.9752 15.2039 15.0102 15.1807 15.0439C14.8735 15.4896 14.451 15.8479 13.9873 16.1182C13.0308 16.6773 11.7136 17 10.1611 17H10.0654C10.0341 17 10.0026 16.9981 9.9707 16.9961L9.95703 16.9951C9.93356 16.9936 9.90915 16.9922 9.88477 16.9912C9.86051 16.9922 9.83682 16.9936 9.81348 16.9951L9.7998 16.9961C9.76792 16.9981 9.73638 17 9.70508 17H9.60938C8.05684 17 6.73976 16.6773 5.7832 16.1182C5.31588 15.8459 4.88981 15.4846 4.58203 15.0342C4.56477 15.0089 4.54873 14.9829 4.53223 14.957C4.50919 14.921 4.48634 14.8848 4.46484 14.8477C4.44997 14.822 4.43598 14.7958 4.42188 14.7695C4.40212 14.7328 4.38245 14.696 4.36426 14.6582C4.35018 14.629 4.33732 14.5992 4.32422 14.5693C4.30614 14.5282 4.28862 14.4867 4.27246 14.4443C4.26312 14.4199 4.25477 14.395 4.24609 14.3701C4.23006 14.3242 4.21486 14.2777 4.20117 14.2305C4.19377 14.2049 4.18638 14.1793 4.17969 14.1533C4.16694 14.1039 4.1556 14.0538 4.14551 14.0029C4.14037 13.977 4.13529 13.9511 4.13086 13.9248C4.12251 13.8753 4.11611 13.8252 4.11035 13.7744C4.10701 13.745 4.10303 13.7154 4.10059 13.6855C4.09419 13.6073 4.09082 13.5276 4.09082 13.4463C4.09082 12.7829 4.43602 12.2802 4.75977 11.958C5.09814 11.6075 5.55451 11.314 6.05469 11.0771C6.1849 11.0155 6.32051 10.9563 6.45996 10.9004C6.50577 10.882 6.55291 10.8663 6.59961 10.8486C6.69922 10.8109 6.80002 10.7728 6.90332 10.7383C6.95668 10.7205 7.01119 10.7054 7.06543 10.6885C7.15875 10.6594 7.25298 10.6308 7.34863 10.6045C7.4183 10.5854 7.48883 10.5683 7.55957 10.5508C7.64495 10.5296 7.73065 10.5081 7.81738 10.4893C7.84512 10.4832 7.87253 10.4755 7.90039 10.4697C7.95591 10.4582 8.0124 10.4489 8.06836 10.4385C8.13227 10.4265 8.19635 10.4149 8.26074 10.4043C8.34886 10.3898 8.43755 10.378 8.52637 10.3662C8.58365 10.3586 8.64075 10.3493 8.69824 10.3428C8.71517 10.3409 8.73208 10.3387 8.74902 10.3369L9.13574 10.3047C9.13933 10.3045 9.1429 10.3039 9.14648 10.3037C9.30084 10.2946 9.45552 10.29 9.60938 10.29L9.62891 10.291C9.65421 10.2907 9.67979 10.29 9.70508 10.29C9.76284 10.2901 9.82508 10.2966 9.88477 10.3037C9.94463 10.2966 10.0075 10.29 10.0654 10.29C10.0907 10.29 10.1163 10.2907 10.1416 10.291C10.1481 10.2908 10.1547 10.29 10.1611 10.29L10.542 10.2998ZM6.36914 9.45215C6.07951 9.55442 5.80133 9.66878 5.53906 9.79297C4.96164 10.0664 4.36296 10.4373 3.87891 10.9355C3.42882 11.3865 2.7998 12.2321 2.7998 13.4463C2.79982 13.9283 2.87447 14.3693 3.00293 14.7695C2.81235 14.6894 2.63311 14.6001 2.4668 14.5029C1.66328 14.0348 1 13.2625 1 12.1865C1.00005 11.6118 1.29959 11.1767 1.58008 10.8975C1.87342 10.5936 2.26948 10.3391 2.70312 10.1338C3.57038 9.72317 4.6928 9.45117 5.7832 9.45117C5.78869 9.45118 5.79423 9.45192 5.7998 9.45215C5.82161 9.45191 5.84344 9.45117 5.86523 9.45117C5.91529 9.45117 5.96974 9.45674 6.02148 9.46289C6.07321 9.45674 6.12766 9.4512 6.17773 9.45117C6.19969 9.45117 6.22217 9.45191 6.24414 9.45215C6.24972 9.45192 6.25525 9.45118 6.26074 9.45117C6.2967 9.45117 6.33312 9.45156 6.36914 9.45215ZM13.9873 9.45117C15.0777 9.45119 16.2001 9.72314 17.0674 10.1338C17.5009 10.3391 17.8962 10.5936 18.1895 10.8975C18.47 11.1767 18.7695 11.6117 18.7695 12.1865C18.7695 13.2623 18.1071 14.0348 17.3037 14.5029C17.1374 14.6001 16.9581 14.6894 16.7676 14.7695C16.896 14.3693 16.9697 13.9283 16.9697 13.4463C16.9697 12.2322 16.3417 11.3866 15.8916 10.9355C15.4075 10.4372 14.8079 10.0664 14.2305 9.79297C13.9684 9.66887 13.6908 9.55436 13.4014 9.45215C13.4372 9.45157 13.473 9.45117 13.5088 9.45117C13.5144 9.45117 13.5207 9.45192 13.5264 9.45215C13.5482 9.45191 13.57 9.45117 13.5918 9.45117C13.642 9.45117 13.6962 9.45672 13.748 9.46289C13.7999 9.45672 13.8541 9.45117 13.9043 9.45117C13.9261 9.45117 13.9479 9.45191 13.9697 9.45215C13.9754 9.45192 13.9817 9.45117 13.9873 9.45117ZM9.75391 4C10.5891 4.00009 11.3165 4.45563 11.7832 5.12402L11.7852 5.12207C11.811 5.1591 11.8342 5.19802 11.8584 5.23633C11.8719 5.2576 11.8865 5.27816 11.8994 5.2998C11.9848 5.44275 12.0578 5.59405 12.1191 5.75098C12.1278 5.77322 12.1354 5.79588 12.1436 5.81836C12.1635 5.87315 12.1824 5.92831 12.1992 5.98438C12.2078 6.01289 12.2159 6.0415 12.2236 6.07031C12.238 6.12418 12.2503 6.1786 12.2617 6.2334C12.268 6.26363 12.2749 6.29374 12.2803 6.32422C12.2907 6.38334 12.2978 6.443 12.3047 6.50293C12.3075 6.52735 12.3113 6.55164 12.3135 6.57617C12.3211 6.66186 12.3262 6.74821 12.3262 6.83496C12.3262 6.91343 12.3208 6.99115 12.3145 7.06836C12.3125 7.09185 12.3111 7.11531 12.3086 7.13867C12.3009 7.21033 12.2913 7.28136 12.2783 7.35156C12.2748 7.37055 12.2705 7.38933 12.2666 7.4082C12.2529 7.47478 12.237 7.54052 12.2188 7.60547C12.2151 7.61848 12.2118 7.63159 12.208 7.64453C12.1849 7.72247 12.1583 7.7989 12.1289 7.87402C12.1256 7.88259 12.1216 7.89089 12.1182 7.89941C12.0916 7.96548 12.0644 8.03119 12.0332 8.09473L12.0312 8.09277C11.6013 8.96993 10.7444 9.59365 9.75391 9.59375C8.76788 9.59375 7.9124 8.96038 7.48047 8.09082C7.44966 8.02879 7.42092 7.96565 7.39453 7.90137C7.38815 7.88582 7.38209 7.87016 7.37598 7.85449C7.31642 7.7019 7.26909 7.54388 7.23633 7.38184C7.23476 7.37408 7.23393 7.36617 7.23242 7.3584C7.21777 7.28263 7.20659 7.20609 7.19824 7.12891C7.19606 7.10875 7.19412 7.08859 7.19238 7.06836C7.18574 6.99102 7.18067 6.91323 7.18066 6.83496C7.18066 6.66425 7.19729 6.49422 7.22754 6.32715C7.23383 6.29238 7.24247 6.25813 7.25 6.22363C7.26101 6.1732 7.27253 6.12298 7.28613 6.07324C7.29356 6.04609 7.30139 6.0191 7.30957 5.99219C7.32626 5.93725 7.34451 5.88293 7.36426 5.8291C7.36982 5.81393 7.37408 5.79828 7.37988 5.7832L7.41309 5.7002C7.42807 5.66443 7.44561 5.62985 7.46191 5.59473C7.47542 5.56564 7.48854 5.53643 7.50293 5.50781C7.535 5.44404 7.56914 5.3815 7.60547 5.32031C7.60977 5.31306 7.61282 5.30506 7.61719 5.29785C7.65884 5.22899 7.7032 5.16172 7.75 5.09668V5.09766C8.21763 4.44739 8.93495 4 9.75391 4ZM5.9082 4C6.21323 4 6.50237 4.07013 6.76465 4.19434C6.2132 4.94556 5.89062 5.88425 5.89062 6.83496C5.89065 7.5317 6.06186 8.20389 6.36426 8.79688C6.21708 8.83073 6.06448 8.84863 5.9082 8.84863C4.67622 8.84862 3.6788 7.70719 3.67871 6.45703C3.67871 5.2068 4.65607 4.00001 5.9082 4ZM13.6348 4C14.8867 4.00028 15.8643 5.17787 15.8643 6.45703C15.8642 7.73611 14.8666 8.84836 13.6348 8.84863C13.4699 8.84863 13.3089 8.82745 13.1543 8.78906C13.4492 8.2021 13.6172 7.53498 13.6172 6.83496C13.6172 5.8776 13.301 4.94877 12.7617 4.20605C13.0283 4.07476 13.3235 4 13.6348 4Z" fill="currentColor"/>
</svg>