<svg xmlns="http://www.w3.org/2000/svg" fill="none" viewBox="0 0 19 20"><g fill="currentColor" clip-path="url(#a)"><path d="M14.17 10.29c-.5 0-.93-.35-1.04-.84l-.03-.13c-.15-.66-.49-1.27-.98-1.74s-1.11-.79-1.79-.9c-.51-.09-.87-.51-.87-1.04s.36-.95.87-1.04a3.45 3.45 0 0 0 2.77-2.66l.03-.12c.11-.49.54-.84 1.04-.84.53-.02.94.34 1.05.83l.03.14c.15.67.5 1.27.99 1.74.5.47 1.12.78 1.79.9.52.09.87.52.87 1.04s-.36.95-.87 1.04c-.68.12-1.29.43-1.79.9s-.84 1.07-.99 1.74l-.04.15c-.11.49-.54.83-1.04.83M4.81 19.08c-.41 0-.74-.33-.74-.74s.33-.74.74-.74h5.14c.41 0 .74.33.74.74s-.33.74-.74.74z"/><path d="M5.45 15.91a1.403 1.403 0 0 1-1.39-1.39v-1.54c-1.3-.7-2.33-1.95-2.84-3.43a6.53 6.53 0 0 1 3.91-8.26A6.6 6.6 0 0 1 7.88.91c1.36.07 2.52.53 3.46 1.35l.07.06-.05.07c-.1.14-.15.22-.23.29-.29.28-.66.47-1.06.54a2.44 2.44 0 0 0-2.03 2.42c0 1.2.85 2.21 2.03 2.41a2.067 2.067 0 0 1 1.64 1.55l.03.15c.12.54.4 1.01.82 1.36l.07.06-.12.19c-.05.09-.1.17-.16.25-.02.04-.13.18-.16.21-.42.5-.92.92-1.5 1.24v1.47c0 .37-.14.71-.4.98-.26.26-.62.41-.98.41H5.45z"/></g><defs><clipPath id="a"><path fill="#fff" d="M.86.89H18.9v18.19H.86z"/></clipPath></defs></svg>