<svg width="100%" height="100%" viewBox="0 0 20 20" fill="none" xmlns="http://www.w3.org/2000/svg">
<path d="M10 1.37488C14.7635 1.37488 18.625 5.23642 18.625 9.99988C18.625 14.7633 14.7635 18.6249 10 18.6249C5.23654 18.6249 1.375 14.7633 1.375 9.99988C1.375 5.23642 5.23654 1.37488 10 1.37488ZM13.1025 11.9012C12.8091 11.7196 12.4239 11.8101 12.2422 12.1034C11.765 12.8742 10.9351 13.3749 10 13.3749C9.0649 13.3749 8.23496 12.8742 7.75781 12.1034C7.57607 11.8101 7.19087 11.7196 6.89746 11.9012C6.6041 12.083 6.51367 12.4682 6.69531 12.7616C7.38474 13.8753 8.60322 14.6249 10 14.6249C11.3968 14.6249 12.6153 13.8753 13.3047 12.7616C13.4863 12.4682 13.3959 12.083 13.1025 11.9012ZM7.5 7.49988C7.04 7.49997 6.66726 7.87293 6.66699 8.33289C6.66699 8.79307 7.03984 9.16678 7.5 9.16687C7.96024 9.16687 8.33398 8.79312 8.33398 8.33289C8.33372 7.87287 7.96007 7.49988 7.5 7.49988ZM12.5 7.49988C12.04 7.49997 11.6673 7.87293 11.667 8.33289C11.667 8.79307 12.0398 9.16678 12.5 9.16687C12.9602 9.16687 13.333 8.79312 13.333 8.33289C13.3327 7.87287 12.9601 7.49988 12.5 7.49988Z" fill="currentColor"/>
</svg>
