<svg xmlns="http://www.w3.org/2000/svg" fill="none" viewBox="0 0 17 17"><g fill="currentColor" clip-path="url(#a)"><path d="m14.36 6.5-1.45 1.46-3.42 3.44a.75.75 0 0 1-.53.22H6.14c-.41 0-.75-.34-.75-.75V8.05c0-.2.08-.39.22-.53L9.05 4.1l1.46-1.45a.7.7 0 0 0-.25-.05H3.3c-.7 0-1.36.27-1.86.77-.49.49-.77 1.17-.77 1.86v8.47c0 .7.27 1.36.77 1.86s1.16.77 1.86.77h8.47c.7 0 1.36-.27 1.86-.77s.77-1.16.77-1.86V6.76c0-.09-.02-.17-.05-.25z"/><path d="M8.64 10.11H6.88V8.35l5.85-5.83 1.74 1.74zm7.67-7.7-.78.79-1.74-1.74.79-.79c.46-.46 1.27-.46 1.73 0 .23.23.36.54.36.87s-.13.64-.36.87"/></g><defs><clipPath id="a"><path fill="#fff" d="M.67.33h16v15.99h-16z"/></clipPath></defs></svg>