<svg width="100%" height="100%" viewBox="0 0 20 20" fill="none" xmlns="http://www.w3.org/2000/svg">
<path d="M9.16008 9.17C11.0001 9.17 12.4901 7.64 12.4901 5.88C12.4901 4.12 11.0301 2.5 9.16008 2.5C7.29008 2.5 5.83008 4.16 5.83008 5.88C5.83008 7.6 7.32008 9.17 9.16008 9.17Z" fill="currentColor"/>
<path fill-rule="evenodd" clip-rule="evenodd" d="M18.2982 10.3052C18.6819 10.561 18.7856 11.0795 18.5298 11.4632L15.5298 15.9632C15.391 16.1713 15.1662 16.3063 14.9173 16.3309C14.6683 16.3556 14.4215 16.2673 14.2446 16.0904L12.2446 14.0904C11.9185 13.7644 11.9185 13.2357 12.2446 12.9096C12.5707 12.5835 13.0993 12.5835 13.4254 12.9096L14.7052 14.1894L17.1402 10.5368C17.396 10.1531 17.9145 10.0494 18.2982 10.3052Z" fill="currentColor"/>
<path d="M12.835 13.5L14.835 15.5L17.835 11" stroke="currentColor" stroke-width="1.67" stroke-linecap="round" stroke-linejoin="round"/>
<path d="M10.0498 10.42C11.7536 10.42 13.5073 10.7473 14.8652 11.2443L14.4717 11.8351C13.5587 10.9373 12.0907 10.9416 11.1836 11.8488C10.2718 12.7606 10.2717 14.2396 11.1836 15.1515L13.1836 17.1515C13.2009 17.1688 13.2205 17.1836 13.2383 17.2003C12.2933 17.3943 11.2209 17.5001 10.0498 17.5001C9.9922 17.5001 9.93735 17.4996 9.88379 17.4982C9.85262 17.4983 9.82138 17.5001 9.79004 17.5001C9.73057 17.5001 9.67095 17.4971 9.60938 17.4943C9.54815 17.4971 9.48885 17.5001 9.42969 17.5001C9.39802 17.5001 9.36645 17.4983 9.33496 17.4982C9.28171 17.4996 9.22718 17.5001 9.16992 17.5001C7.05992 17.5001 5.26973 17.1604 3.96973 16.5704C2.70976 16.0004 1.66996 15.0601 1.66992 13.7501C1.66992 13.0501 2.14008 12.5198 2.58008 12.1798C3.04004 11.8099 3.65998 11.5001 4.33984 11.2501C5.69984 10.7501 7.45992 10.42 9.16992 10.42C9.18757 10.42 9.20547 10.4219 9.22363 10.423C9.29235 10.4218 9.36103 10.42 9.42969 10.42C9.48756 10.42 9.54868 10.426 9.60938 10.4308C9.67038 10.426 9.73186 10.42 9.79004 10.42L9.99512 10.423C10.0136 10.4219 10.0318 10.42 10.0498 10.42ZM16.2354 11.8937C16.3805 11.9846 16.5158 12.0802 16.6396 12.1798C16.9378 12.4102 17.2488 12.7284 17.4189 13.1271L15.5293 15.963C15.3905 16.1711 15.1659 16.3065 14.917 16.3312C14.6682 16.3557 14.421 16.2677 14.2441 16.0909L12.2441 14.0909C11.9181 13.7649 11.9181 13.2354 12.2441 12.9093C12.5702 12.5832 13.0997 12.5832 13.4258 12.9093L14.7051 14.1896L16.2354 11.8937Z" fill="currentColor"/>
</svg>