<svg width="100%" height="100%" viewBox="0 0 20 20" fill="none" xmlns="http://www.w3.org/2000/svg">
<g clip-path="url(#clip0_376_23491)">
<g clip-path="url(#clip1_376_23491)">
<path d="M6.23997 19.0799C5.39997 19.0799 4.56997 18.8799 3.82997 18.4999L2.02997 18.8299C1.78997 18.8799 1.53997 18.8 1.35997 18.62C1.18997 18.45 1.10997 18.2 1.14997 17.95L1.48997 16.1499C1.00997 15.1999 0.819974 14.0999 0.959974 13.0399C1.10997 11.8799 1.64997 10.7899 2.47997 9.95995C3.30997 9.12995 4.39997 8.59995 5.54997 8.43995C6.70997 8.28995 7.89997 8.51995 8.90997 9.10995C9.91997 9.68995 10.72 10.6099 11.17 11.6899C11.62 12.7699 11.7 13.9799 11.4 15.1099C11.1 16.2399 10.42 17.2499 9.49997 17.9599C8.56997 18.6699 7.41997 19.0599 6.24997 19.0599L6.23997 19.0799Z" fill="currentColor"/>
<path d="M18.6198 5.74998C18.2398 4.72998 17.6298 3.78998 16.8498 3.03998C16.0698 2.27998 15.1198 1.68998 14.0998 1.33998C13.0698 0.979985 11.9598 0.859985 10.8798 0.969985C9.79984 1.07998 8.73984 1.43998 7.80984 2.00998C6.87984 2.56998 6.07984 3.34999 5.47984 4.24998C4.88984 5.13999 4.49984 6.15998 4.33984 7.19998C4.66984 7.09998 5.00984 7.01998 5.35984 6.97998C5.64984 6.93998 5.94984 6.91998 6.24984 6.91998C7.44984 6.91998 8.62984 7.23998 9.66984 7.82998C10.9698 8.57998 11.9898 9.74998 12.5698 11.13C13.1498 12.51 13.2398 14.07 12.8598 15.51C12.8498 15.56 12.8198 15.6 12.8098 15.65C12.8298 15.65 12.8498 15.65 12.8698 15.65C13.6698 15.52 14.4298 15.26 15.1398 14.89L17.8798 15.4C18.1198 15.45 18.3698 15.37 18.5498 15.19C18.7198 15.02 18.7998 14.77 18.7598 14.52L18.2498 11.78C18.7098 10.9 18.9998 9.92998 19.0798 8.93998C19.1698 7.85998 19.0198 6.74998 18.6398 5.72998L18.6198 5.74998Z" fill="currentColor"/>
</g>
</g>
<defs>
<clipPath id="clip0_376_23491">
<rect width="20" height="20" fill="white"/>
</clipPath>
<clipPath id="clip1_376_23491">
<rect width="20" height="20" fill="white"/>
</clipPath>
</defs>
</svg>
