<svg xmlns="http://www.w3.org/2000/svg" fill="none" viewBox="0 0 20 20"><g fill="currentColor" clip-path="url(#a)"><path d="M6.24 19.08c-.84 0-1.67-.2-2.41-.58l-1.8.33a.74.74 0 0 1-.67-.21.78.78 0 0 1-.21-.67l.34-1.8c-.48-.95-.67-2.05-.53-3.11a5.344 5.344 0 0 1 4.59-4.6c1.16-.15 2.35.08 3.36.67a5.351 5.351 0 0 1 2.49 6c-.3 1.13-.98 2.14-1.9 2.85-.93.71-2.08 1.1-3.25 1.1z"/><path d="M18.62 5.75a7.3 7.3 0 0 0-1.77-2.71 7.425 7.425 0 0 0-9.04-1.03c-.93.56-1.73 1.34-2.33 2.24A7.4 7.4 0 0 0 4.34 7.2c.33-.1.67-.18 1.02-.22.29-.04.59-.06.89-.06 1.2 0 2.38.32 3.42.91 1.3.75 2.32 1.92 2.9 3.3s.67 2.94.29 4.38c-.01.05-.04.09-.05.14h.06c.8-.13 1.56-.39 2.27-.76l2.74.51c.24.05.49-.03.67-.21.17-.17.25-.42.21-.67l-.51-2.74c.46-.88.75-1.85.83-2.84.09-1.08-.06-2.19-.44-3.21z"/></g><defs><clipPath id="a"><path fill="#fff" d="M0 0h20v20H0z"/></clipPath></defs></svg>