<svg width="100%" height="100%" viewBox="0 0 20 20" fill="none" xmlns="http://www.w3.org/2000/svg">
<path d="M4.91504 2.88098C6.59284 1.68254 8.63995 1.11474 10.6953 1.27844C12.7508 1.44225 14.6825 2.32738 16.1494 3.77649C17.6161 5.2256 18.525 7.14615 18.7139 9.19934C18.9026 11.2525 18.3596 13.3069 17.1816 14.9991C16.0036 16.6914 14.2655 17.9134 12.2744 18.4493C10.299 18.981 8.20023 18.8032 6.34277 17.9484C6.20165 17.8961 6.04946 17.8824 5.90137 17.9083L3.2168 18.6935C3.21082 18.6952 3.20426 18.6968 3.19824 18.6984C2.94327 18.766 2.67462 18.7682 2.41895 18.7032C2.16332 18.6382 1.92809 18.5084 1.73633 18.3273C1.54456 18.146 1.40266 17.9177 1.32324 17.6661C1.24398 17.4145 1.23012 17.1462 1.2832 16.8878C1.28869 16.8612 1.29538 16.8346 1.30371 16.8087L2.13867 14.2286C2.17046 14.0685 2.15684 13.9022 2.09668 13.7501H2.0957C1.22033 11.9046 1.0175 9.81012 1.52441 7.8302C2.03595 5.8326 3.23715 4.07964 4.91504 2.88098ZM10 13.2491C9.58623 13.2494 9.25036 13.5854 9.25 13.9991C9.25 14.4132 9.58601 14.7489 10 14.7491H10.0078C10.422 14.7491 10.7578 14.4133 10.7578 13.9991C10.7575 13.5853 10.4218 13.2492 10.0078 13.2491H10ZM10.4688 5.29114C9.73575 5.16554 8.98101 5.30397 8.33984 5.68079C7.6988 6.05762 7.21171 6.64928 6.96484 7.35071C6.82749 7.74118 7.03264 8.169 7.42285 8.30676C7.8135 8.44418 8.24135 8.23932 8.37891 7.84875C8.50818 7.48141 8.76393 7.17116 9.09961 6.97375C9.43537 6.77642 9.83098 6.70394 10.2148 6.76965C10.5986 6.83549 10.9474 7.0354 11.1982 7.33313C11.4491 7.63111 11.5864 8.01003 11.5859 8.39954C11.5859 8.80132 11.2743 9.20556 10.7197 9.57532C10.4653 9.74494 10.205 9.87548 10.0059 9.96399C9.90753 10.0077 9.82608 10.0408 9.77148 10.0616C9.74498 10.0717 9.72446 10.0787 9.71191 10.0831C9.70571 10.0853 9.69942 10.0873 9.69727 10.088C9.30544 10.2195 9.09413 10.6449 9.22461 11.0372C9.35576 11.4297 9.78017 11.6416 10.1729 11.5109H10.1748L10.1777 11.5089C10.18 11.5082 10.1832 11.5071 10.1865 11.506C10.1933 11.5036 10.2028 11.5011 10.2139 11.4972C10.2363 11.4892 10.2676 11.4775 10.3057 11.463C10.3822 11.4339 10.489 11.3912 10.6152 11.3351C10.866 11.2236 11.2064 11.0536 11.5518 10.8234C12.1568 10.42 12.9753 9.69557 13.0752 8.61926L13.0859 8.39954C13.0867 7.65624 12.8244 6.93597 12.3457 6.36731C11.8668 5.79861 11.2015 5.41692 10.4688 5.29114Z" fill="currentColor"/>
</svg>