<svg xmlns="http://www.w3.org/2000/svg" width="100%" height="100%" viewBox="0 0 20 20" fill="none">
  <path d="M10 17C13.866 17 17 13.866 17 10C17 6.13401 13.866 3 10 3M10 17C6.13401 17 3 13.866 3 10C3 6.13401 6.13401 3 10 3M10 17C8.30863 17 6.9375 13.866 6.9375 10C6.9375 6.13401 8.30863 3 10 3M10 17C11.6914 17 13.0625 13.866 13.0625 10C13.0625 6.13401 11.6914 3 10 3M4.3125 13.4023C5.59492 12.668 7.72557 12.1875 10.1372 12.1875C12.6541 12.1875 14.865 12.7109 16.125 13.5M4.3125 6.59767C5.59492 7.33203 7.72557 7.8125 10.1372 7.8125C12.6541 7.8125 14.865 7.28914 16.125 6.5" stroke="currentColor" stroke-width="1.2"/>
</svg>