<svg xmlns="http://www.w3.org/2000/svg" fill="none" viewBox="0 0 20 20"><path fill="currentColor" d="M8.36 8.125a.703.703 0 1 0-1.407 0zM6.952 17.5a.703.703 0 0 0 1.406 0zM5.313 3.203h9.375V1.797H5.313zm11.484 2.11v9.375h1.406V5.313zm-2.11 11.484H5.313v1.406h9.375zm-11.484-2.11V5.313H1.797v9.375zm2.11 2.11a2.11 2.11 0 0 1-2.11-2.11H1.797a3.516 3.516 0 0 0 3.516 3.516zm11.484-2.11a2.11 2.11 0 0 1-2.11 2.11v1.406a3.516 3.516 0 0 0 3.516-3.515zm-2.11-11.484a2.11 2.11 0 0 1 2.11 2.11h1.406a3.516 3.516 0 0 0-3.515-3.516zM5.313 1.797a3.516 3.516 0 0 0-3.516 3.516h1.406a2.11 2.11 0 0 1 2.11-2.11zm1.64 6.328V17.5H8.36V8.125zm-3.984.234H17.03V6.953H2.97z"/></svg>