<svg width="100%" height="100%" viewBox="0 0 20 20" fill="none" xmlns="http://www.w3.org/2000/svg">
<path d="M11.462 16.5122C10.7642 16.6124 9.99591 16.6667 9.16667 16.6667C5.10101 16.6667 2.5 15.3609 2.5 13.75C2.5 12.5 5.94501 11.25 9.16667 11.25C9.70352 11.25 10.2686 11.2802 10.8333 11.3394M11.6667 5.87922C11.6667 7.17473 10.5474 8.33337 9.16667 8.33337C7.78595 8.33337 6.66667 7.17473 6.66667 5.87922C6.66667 4.5837 7.78595 3.33337 9.16667 3.33337C10.5474 3.33337 11.6667 4.5837 11.6667 5.87922Z" stroke="currentColor" stroke-width="1.5" stroke-linecap="round" stroke-linejoin="round"/>
<path d="M12.835 13.5L14.835 15.5L17.835 11" stroke="currentColor" stroke-width="1.5" stroke-linecap="round" stroke-linejoin="round"/>
</svg>
