<svg width="100%" height="100%" viewBox="0 0 20 20" fill="none" xmlns="http://www.w3.org/2000/svg">
<path fill-rule="evenodd" clip-rule="evenodd" d="M13.3041 16.3224C12.2457 16.8056 11.0532 17.0773 9.79167 17.0773C5.41941 17.0773 1.875 13.814 1.875 9.78863C1.875 5.76323 5.41941 2.5 9.79167 2.5C14.1639 2.5 17.7083 5.76323 17.7083 9.78863C17.7083 10.976 17.3999 12.097 16.8529 13.0876L17.5769 16.3856C17.73 17.0832 17.0827 17.6831 16.4303 17.4481L13.3041 16.3224ZM5.83333 8.42201C5.10462 8.42201 4.51389 9.03386 4.51389 9.78863V9.8657C4.51389 10.6205 5.10462 11.2323 5.83333 11.2323C6.56204 11.2323 7.15278 10.6205 7.15278 9.8657V9.78863C7.15278 9.03386 6.56204 8.42201 5.83333 8.42201ZM9.79129 8.42201C9.06258 8.42201 8.47185 9.03386 8.47185 9.78863V9.8657C8.47185 10.6205 9.06258 11.2323 9.79129 11.2323C10.52 11.2323 11.1107 10.6205 11.1107 9.8657V9.78863C11.1107 9.03386 10.52 8.42201 9.79129 8.42201ZM12.4298 9.78863C12.4298 9.03386 13.0205 8.42201 13.7492 8.42201C14.478 8.42201 15.0687 9.03386 15.0687 9.78863V9.8657C15.0687 10.6205 14.478 11.2323 13.7492 11.2323C13.0205 11.2323 12.4298 10.6205 12.4298 9.8657V9.78863Z" fill="currentColor"/>
</svg>
