<svg xmlns="http://www.w3.org/2000/svg" fill="none" viewBox="0 0 24 24"><g fill="#aeb2bc" clip-path="url(#a)"><path d="M12.202 4.944a.744.744 0 1 0 0-1.487.744.744 0 0 0 0 1.487M18.207 7.08a.946.946 0 1 0-1.337-1.338.946.946 0 0 0 1.337 1.337M19.749 12.794a1.047 1.047 0 1 0 0-2.093 1.047 1.047 0 0 0 0 2.093M17.538 15.936a1.148 1.148 0 1 0 0 2.295 1.148 1.148 0 0 0 0-2.295m-5.336 2.11a1.249 1.249 0 1 0 0 2.497 1.249 1.249 0 0 0 0-2.498m-6.29-1.917a1.35 1.35 0 1 0 1.909 1.91 1.35 1.35 0 0 0-1.91-1.91m.194-4.382a1.451 1.451 0 1 0-2.902 0 1.451 1.451 0 0 0 2.902 0m1.857-6.433a1.227 1.227 0 1 0-1.097 2.194 1.227 1.227 0 0 0 1.097-2.194"/></g><defs><clipPath id="a"><path fill="#fff" d="M3 3h18v18H3z"/></clipPath></defs></svg>