<svg xmlns="http://www.w3.org/2000/svg" fill="none" viewBox="0 0 24 24"><path fill="currentColor" fill-rule="evenodd" d="M15 4.5a.75.75 0 0 0-.721.544l-.813 2.846a3.75 3.75 0 0 1-2.576 2.576l-2.846.813a.75.75 0 0 0 0 1.442l2.846.813a3.75 3.75 0 0 1 2.576 2.576l.813 2.846a.75.75 0 0 0 1.442 0l.813-2.846a3.75 3.75 0 0 1 2.576-2.576l2.846-.813a.75.75 0 0 0 0-1.442l-2.846-.813a3.75 3.75 0 0 1-2.576-2.576l-.813-2.846A.75.75 0 0 0 15 4.5m-9-3a.75.75 0 0 0-.728.568l-.258 1.036a2.63 2.63 0 0 1-1.91 1.91l-1.036.258a.75.75 0 0 0 0 1.456l1.036.258a2.63 2.63 0 0 1 1.91 1.91l.258 1.036a.75.75 0 0 0 1.456 0l.258-1.036a2.63 2.63 0 0 1 1.91-1.91l1.036-.258a.75.75 0 0 0 0-1.456l-1.036-.258a2.63 2.63 0 0 1-1.91-1.91l-.258-1.036A.75.75 0 0 0 6 1.5M7.5 15a.75.75 0 0 0-.712.513l-.394 1.183a1.5 1.5 0 0 1-.948.948l-1.183.395a.75.75 0 0 0 0 1.422l1.183.395a1.5 1.5 0 0 1 .948.948l.395 1.183a.75.75 0 0 0 1.422 0l.395-1.183a1.5 1.5 0 0 1 .948-.948l1.183-.395a.75.75 0 0 0 0-1.422l-1.183-.395a1.5 1.5 0 0 1-.948-.948l-.395-1.183A.75.75 0 0 0 7.5 15" clip-rule="evenodd"/></svg>