<svg xmlns="http://www.w3.org/2000/svg" fill="none" viewBox="0 0 20 20"><path fill="currentColor" stroke="currentColor" stroke-linejoin="round" stroke-width="1.67" d="M2.92 8.008C3.17 6.286 4.78 5 6.68 5h6.638c1.902 0 3.51 1.286 3.762 3.008l.885 6.067C18.27 16.153 16.5 18 14.204 18H5.796C3.5 18 1.73 16.153 2.034 14.075z"/><path stroke="currentColor" stroke-linecap="round" stroke-linejoin="round" stroke-width="1.67" d="M6.667 4.834V5a3.333 3.333 0 0 1 6.666 0v-.166"/><path fill="#ebf0fb" fill-rule="evenodd" d="M7.5 8.332c.461 0 .835.374.835.835V10a1.665 1.665 0 1 0 3.33 0v-.833a.835.835 0 0 1 1.67 0V10a3.335 3.335 0 1 1-6.67 0v-.833c0-.461.374-.835.835-.835" clip-rule="evenodd"/></svg>