<svg width="100%" height="100%" viewBox="0 0 20 20" fill="none" xmlns="http://www.w3.org/2000/svg">
<path d="M2.91944 8.00846C3.17083 6.28624 4.77914 5 6.68125 5H13.3187C15.2208 5 16.8292 6.28624 17.0805 8.00846L17.9661 14.0751C18.2694 16.1534 16.4995 18 14.2043 18H5.79572C3.5005 18 1.73058 16.1534 2.03392 14.0751L2.91944 8.00846Z" stroke="currentColor" stroke-width="1.4" stroke-linejoin="round"/>
<path d="M6.6665 4.83317V4.99984C6.6665 3.15889 8.15889 1.6665 9.99984 1.6665C11.8408 1.6665 13.3332 3.15889 13.3332 4.99984V4.83317M7.49984 9.1665V9.99984C7.49984 11.3806 8.61909 12.4998 9.99984 12.4998C11.3806 12.4998 12.4998 11.3806 12.4998 9.99984V9.1665" stroke="currentColor" stroke-width="1.4" stroke-linecap="round" stroke-linejoin="round"/>
</svg>
