<svg xmlns="http://www.w3.org/2000/svg" fill="none" viewBox="0 0 20 20"><path fill="currentColor" fill-rule="evenodd" d="M5.517 9.62h8.966a4.14 4.14 0 0 0 4.138-4.137 4.14 4.14 0 0 0-4.138-4.138H5.517A4.14 4.14 0 0 0 1.38 5.483 4.14 4.14 0 0 0 5.517 9.62m10.345-4.103a1.38 1.38 0 1 1-2.758 0 1.38 1.38 0 0 1 2.758 0M5.517 18.62h8.966a4.14 4.14 0 0 0 4.138-4.137 4.14 4.14 0 0 0-4.138-4.138H5.517a4.14 4.14 0 0 0-4.138 4.138 4.14 4.14 0 0 0 4.138 4.138m1.38-4.137a1.38 1.38 0 1 1-2.759 0 1.38 1.38 0 0 1 2.759 0" clip-rule="evenodd"/></svg>