<svg xmlns="http://www.w3.org/2000/svg" fill="none" viewBox="0 0 20 20"><path fill="currentColor" d="M14.483 6.896a1.38 1.38 0 1 0 0-2.758 1.38 1.38 0 0 0 0 2.758"/><path fill="currentColor" d="M14.483 9.655H5.517A4.14 4.14 0 0 1 1.38 5.517a4.14 4.14 0 0 1 4.138-4.138h8.966a4.14 4.14 0 0 1 4.138 4.138 4.14 4.14 0 0 1-4.138 4.138M5.517 2.758A2.76 2.76 0 0 0 2.76 5.517a2.76 2.76 0 0 0 2.758 2.758h8.966a2.76 2.76 0 0 0 2.758-2.758 2.76 2.76 0 0 0-2.758-2.759zM5.517 15.862a1.38 1.38 0 1 0 0-2.758 1.38 1.38 0 0 0 0 2.758"/><path fill="currentColor" d="M14.483 18.62H5.517a4.14 4.14 0 0 1-4.138-4.137 4.14 4.14 0 0 1 4.138-4.138h8.966a4.14 4.14 0 0 1 4.138 4.138 4.14 4.14 0 0 1-4.138 4.138m-8.966-6.896a2.76 2.76 0 0 0-2.758 2.759 2.76 2.76 0 0 0 2.758 2.758h8.966a2.76 2.76 0 0 0 2.758-2.758 2.76 2.76 0 0 0-2.758-2.759z"/></svg>