<svg width="100%" height="100%" viewBox="0 0 20 20" fill="none" xmlns="http://www.w3.org/2000/svg">
<path d="M17 4.755V4.25901C17 3.59501 16.7362 2.963 16.2644 2.491C15.7927 2.019 15.1611 1.755 14.4974 1.755H5.50257C4.83895 1.755 4.20731 2.019 3.73558 2.491C3.26385 2.963 3 3.59501 3 4.25901V4.755H16.992H17Z" fill="currentColor"/>
<path d="M3 5.755V14.2065C3 14.8823 3.26385 15.5255 3.73558 16.0059C4.20731 16.4863 4.83895 16.755 5.50257 16.755H14.4974C15.1611 16.755 15.7927 16.4863 16.2644 16.0059C16.7362 15.5255 17 14.8823 17 14.2065V5.755H3Z" fill="currentColor"/>
</svg>
