<svg xmlns="http://www.w3.org/2000/svg" width="100%" height="100%" viewBox="0 0 20 20" fill="none">
  <path fill-rule="evenodd" clip-rule="evenodd" d="M9.99975 1.375C5.2363 1.375 1.37476 5.23654 1.37476 10C1.37476 14.7635 5.2363 18.625 9.99975 18.625C14.7632 18.625 18.6248 14.7635 18.6248 10C18.6248 5.23654 14.7632 1.375 9.99975 1.375ZM7.75779 12.1037C7.57611 11.8103 7.19091 11.7196 6.89741 11.9013C6.60391 12.083 6.51326 12.4682 6.69494 12.7617C7.38435 13.8754 8.60292 14.625 9.99974 14.625C11.3966 14.625 12.6151 13.8754 13.3045 12.7617C13.4862 12.4682 13.3956 12.083 13.1021 11.9013C12.8086 11.7196 12.4234 11.8103 12.2417 12.1037C11.7645 12.8746 10.9348 13.375 9.99974 13.375C9.06464 13.375 8.23494 12.8746 7.75779 12.1037ZM8.33325 8.3335C8.33325 8.79373 7.96016 9.16683 7.49992 9.16683C7.03968 9.16683 6.66659 8.79373 6.66659 8.3335C6.66659 7.87326 7.03968 7.50016 7.49992 7.50016C7.96016 7.50016 8.33325 7.87326 8.33325 8.3335ZM12.4999 9.16683C12.9602 9.16683 13.3333 8.79373 13.3333 8.3335C13.3333 7.87326 12.9602 7.50016 12.4999 7.50016C12.0397 7.50016 11.6666 7.87326 11.6666 8.3335C11.6666 8.79373 12.0397 9.16683 12.4999 9.16683Z" fill="currentColor"/>
</svg>