<svg width="100%" height="100%" viewBox="0 0 24 24" fill="none" xmlns="http://www.w3.org/2000/svg">
<g clip-path="url(#clip0_377_4759)">
<path d="M12.202 4.944C12.6126 4.944 12.9455 4.61113 12.9455 4.20052C12.9455 3.7899 12.6126 3.45703 12.202 3.45703C11.7914 3.45703 11.4585 3.7899 11.4585 4.20052C11.4585 4.61113 11.7914 4.944 12.202 4.944Z" fill="#AEB2BC"/>
<path d="M18.207 7.07926C18.5763 6.70999 18.5763 6.1113 18.207 5.74203C17.8377 5.37277 17.2391 5.37277 16.8698 5.74203C16.5005 6.1113 16.5005 6.70999 16.8698 7.07926C17.2391 7.44852 17.8377 7.44852 18.207 7.07926Z" fill="#AEB2BC"/>
<path d="M19.7488 12.794C20.3269 12.794 20.7955 12.3254 20.7955 11.7474C20.7955 11.1693 20.3269 10.7007 19.7488 10.7007C19.1707 10.7007 18.7021 11.1693 18.7021 11.7474C18.7021 12.3254 19.1707 12.794 19.7488 12.794Z" fill="#AEB2BC"/>
<path d="M17.5384 15.9359C17.2728 15.9358 17.0155 16.0279 16.8101 16.1964C16.6048 16.3648 16.4643 16.5993 16.4124 16.8597C16.3606 17.1202 16.4007 17.3906 16.5259 17.6248C16.6511 17.859 16.8536 18.0426 17.0989 18.1443C17.3443 18.2459 17.6173 18.2593 17.8715 18.1822C18.1256 18.1051 18.3452 17.9423 18.4927 17.7215C18.6403 17.5007 18.7067 17.2355 18.6806 16.9712C18.6546 16.7069 18.5377 16.4598 18.3499 16.272C18.2436 16.1651 18.1171 16.0804 17.9778 16.0227C17.8385 15.965 17.6892 15.9355 17.5384 15.9359ZM12.2021 18.0451C11.9551 18.0451 11.7136 18.1184 11.5083 18.2556C11.3029 18.3928 11.1428 18.5878 11.0483 18.816C10.9538 19.0442 10.9291 19.2953 10.9773 19.5376C11.0254 19.7798 11.1444 20.0023 11.319 20.177C11.4937 20.3516 11.7162 20.4706 11.9584 20.5187C12.2007 20.5669 12.4518 20.5422 12.68 20.4477C12.9082 20.3532 13.1032 20.1931 13.2404 19.9877C13.3776 19.7824 13.4509 19.5409 13.4509 19.2939C13.4505 18.9628 13.3188 18.6454 13.0847 18.4113C12.8506 18.1772 12.5332 18.0455 12.2021 18.0451ZM5.91135 16.1291C5.72258 16.3179 5.59394 16.5584 5.54186 16.8203C5.48979 17.0821 5.51653 17.3535 5.6187 17.6002C5.72087 17.8468 5.89389 18.0576 6.11587 18.2059C6.33785 18.3543 6.59882 18.4334 6.8658 18.4334C7.13277 18.4334 7.39374 18.3543 7.61572 18.2059C7.8377 18.0576 8.01072 17.8468 8.11289 17.6002C8.21506 17.3535 8.2418 17.0821 8.18973 16.8203C8.13765 16.5584 8.00911 16.3179 7.82034 16.1291C7.56703 15.8763 7.22375 15.7343 6.86584 15.7343C6.50794 15.7343 6.16466 15.8763 5.91135 16.1291ZM6.10637 11.7473C6.10636 11.4603 6.02126 11.1798 5.86183 10.9412C5.70239 10.7026 5.47579 10.5167 5.21067 10.4069C4.94555 10.2971 4.65382 10.2683 4.37238 10.3243C4.09094 10.3803 3.83242 10.5185 3.62951 10.7214C3.42661 10.9243 3.28843 11.1829 3.23246 11.4643C3.17649 11.7458 3.20523 12.0375 3.31505 12.3026C3.42488 12.5677 3.61085 12.7943 3.84945 12.9537C4.08805 13.1132 4.36857 13.1982 4.65553 13.1982C5.0402 13.1978 5.40898 13.0448 5.68098 12.7728C5.95297 12.5007 6.10596 12.132 6.10637 11.7473ZM7.96325 5.31359C7.6722 5.16808 7.33527 5.14415 7.02657 5.24706C6.71787 5.34997 6.4627 5.57129 6.31718 5.86234C6.17167 6.15339 6.14773 6.49032 6.25063 6.79902C6.35353 7.10772 6.57485 7.3629 6.8659 7.50842C7.15694 7.65395 7.49388 7.67789 7.80258 7.575C8.11128 7.4721 8.36646 7.25079 8.51199 6.95975C8.65752 6.6687 8.68148 6.33177 8.57859 6.02307C8.4757 5.71436 8.25429 5.45913 7.96325 5.31359Z" fill="#AEB2BC"/>
</g>
<defs>
<clipPath id="clip0_377_4759">
<rect width="18" height="18" fill="white" transform="translate(3 3)"/>
</clipPath>
</defs>
</svg>
